<svg width="24" height="24" viewBox="0 0 24 24" fill="none" xmlns="http://www.w3.org/2000/svg">
<path d="M17.1456 13.8036C18.3289 11.7623 18.8906 10.1398 18.8906 9C18.8906 5.19441 15.8056 2.10938 12 2.10938C8.19441 2.10938 5.10938 5.19441 5.10938 9C5.10938 10.1398 5.67113 11.7623 6.85439 13.8036C8.01361 15.8034 9.72963 18.1398 12 20.7992C14.2704 18.1398 15.9864 15.8034 17.1456 13.8036ZM12.8822 23.0044C12.8478 23.0437 12.8108 23.0807 12.7714 23.1152C12.2842 23.5412 11.5439 23.4916 11.1178 23.0044C5.70593 16.8152 3 12.1471 3 9C3 4.02945 7.02945 0 12 0C16.9706 0 21 4.02945 21 9C21 12.1471 18.2941 16.8152 12.8822 23.0044V23.0044ZM12 12.75C14.0711 12.75 15.75 11.0711 15.75 9C15.75 6.92892 14.0711 5.25 12 5.25C9.92892 5.25 8.25 6.92892 8.25 9C8.25 11.0711 9.92892 12.75 12 12.75ZM12 10.6406C11.0939 10.6406 10.3594 9.90609 10.3594 9C10.3594 8.09391 11.0939 7.35938 12 7.35938C12.9061 7.35938 13.6406 8.09391 13.6406 9C13.6406 9.90609 12.9061 10.6406 12 10.6406Z" fill="#262626"/>
</svg>
