<svg width="16" height="16" viewBox="0 0 16 16" fill="none" xmlns="http://www.w3.org/2000/svg">
<path fill-rule="evenodd" clip-rule="evenodd" d="M7.5843 9.9104C6.78415 9.9104 6.01887 9.63069 5.42059 9.13536C4.68481 9.69088 3.73858 9.92661 2.8091 9.76911V13.8109C2.8091 14.1352 3.11007 14.3975 3.48078 14.3975H7.51823C7.93482 14.3975 8.27433 14.7549 8.27433 15.1978C8.27433 15.6406 7.93482 16 7.51823 16H3.48078C2.27689 16 1.29689 15.0191 1.29689 13.8128V9.11135C1.02171 8.89938 0.77963 8.64471 0.581164 8.3545C0.0287677 7.55226 -0.140071 6.54996 0.118693 5.60787L1.00326 1.69771C1.28405 0.681801 2.1833 0 3.2 0H11.697C12.6329 0 13.4863 0.586621 13.8185 1.46073C13.8258 1.48015 13.8332 1.50152 13.8387 1.52094L14.7801 4.71434C15.2866 6.2683 15.1306 7.52895 14.3085 8.43802C14.0699 8.70608 13.7818 8.93529 13.4514 9.11982C12.3301 9.74724 10.9537 9.67148 9.91684 8.9858C9.30021 9.57436 8.47253 9.9104 7.5843 9.9104ZM5.44445 7.2337H5.4628C5.6922 7.23953 5.90692 7.35608 6.04456 7.54838C6.38774 8.02428 6.96216 8.30982 7.58246 8.30982C8.24313 8.30982 8.85793 7.9796 9.18643 7.44737C9.22313 7.38716 9.26718 7.33471 9.31673 7.28809C9.58467 7.03169 10.0637 7.03169 10.3316 7.28809C10.3463 7.30168 10.3609 7.31721 10.3756 7.33274L10.3756 7.33277C10.9647 7.98737 11.9613 8.14277 12.7449 7.70377C12.9302 7.60082 13.0862 7.47651 13.211 7.33665L13.2165 7.33082C13.4753 7.04528 13.7708 6.51499 13.345 5.21161L12.4072 2.02987C12.2971 1.76958 12.0145 1.5967 11.6988 1.5967H3.20183C2.85681 1.5967 2.5485 1.81037 2.46592 2.10562L1.58135 6.01384C1.44187 6.52082 1.52629 7.00449 1.80708 7.41046C2.05483 7.7737 2.43288 8.03399 2.87884 8.1486C3.62576 8.34478 4.40573 8.09421 4.8682 7.51341C5.00951 7.33859 5.22239 7.2337 5.44445 7.2337ZM11.8511 14.1799H10.8987C10.4821 14.1799 10.1426 13.8225 10.1426 13.3796C10.1426 12.9367 10.4802 12.5793 10.8987 12.5793H11.8511V11.5712C11.8511 11.1303 12.1888 10.7709 12.6072 10.7709C13.0257 10.7709 13.3633 11.1283 13.3633 11.5712V12.5793H14.314C14.7306 12.5793 15.0701 12.9367 15.0701 13.3796C15.0701 13.8225 14.7324 14.1799 14.314 14.1799H13.3633V15.1861C13.3633 15.629 13.0238 15.9864 12.6072 15.9864C12.1907 15.9864 11.8511 15.629 11.8511 15.1861V14.1799Z" fill="white"/>
</svg>
