<svg width="40" height="40" viewBox="0 0 40 40" fill="none" xmlns="http://www.w3.org/2000/svg">
<g clip-path="url(#clip0_201_197)">
<path d="M39 20C36.3736 20 33.7728 19.4827 31.3463 18.4776C28.9198 17.4725 26.715 15.9993 24.8579 14.1421C23.0007 12.285 21.5275 10.0802 20.5224 7.65366C19.5173 5.22715 19 2.62643 19 -5.72205e-06H20C20 2.49511 20.4914 4.96579 21.4463 7.27098C22.4011 9.57617 23.8007 11.6707 25.565 13.435C27.3293 15.1993 29.4238 16.5989 31.729 17.5537C34.0342 18.5085 36.5049 19 39 19V20Z" fill="white"/>
<path d="M39 19C36.3736 19 33.7728 19.5173 31.3463 20.5224C28.9198 21.5275 26.715 23.0007 24.8579 24.8579C23.0007 26.715 21.5275 28.9198 20.5224 31.3463C19.5173 33.7728 19 36.3736 19 39H20C20 36.5049 20.4914 34.0342 21.4463 31.729C22.4011 29.4238 23.8007 27.3293 25.565 25.565C27.3293 23.8007 29.4238 22.4011 31.729 21.4463C34.0342 20.4915 36.5049 20 39 20V19Z" fill="white"/>
<rect x="1" y="19" width="25" height="1" fill="white"/>
</g>
<defs>
<clipPath id="clip0_201_197">
<rect width="40" height="40" fill="white"/>
</clipPath>
</defs>
</svg>
