<svg width="13" height="16" viewBox="0 0 13 16" fill="none" xmlns="http://www.w3.org/2000/svg">
<path d="M1.33514e-05 6.85874C1.33514e-05 3.071 2.78601 0 6.22224 0C9.65846 0 12.4445 3.071 12.4445 6.85874C12.4445 8.72831 11.7636 10.4213 10.6633 11.6587H10.6659L10.6405 11.6867C10.6281 11.7004 10.6156 11.7147 10.6027 11.7284L7.08453 15.6065C6.60853 16.1312 5.83698 16.1312 5.36098 15.6065L1.84283 11.7284C1.83038 11.7147 1.81742 11.701 1.80498 11.6867L1.77957 11.6587H1.78216C0.680829 10.4213 1.33514e-05 8.72831 1.33514e-05 6.85874ZM5.36046 13.9918C6.2212 14.9406 6.22172 14.9429 7.08401 13.9918L9.88661 10.886C10.8225 9.85314 11.4074 8.43453 11.4074 6.85874C11.4074 3.702 9.08601 1.14312 6.22224 1.14312C3.35846 1.14312 1.03705 3.702 1.03705 6.85874C1.03705 8.43453 1.62194 9.85314 2.55787 10.886L5.36046 13.9918ZM6.22068 3.42937C7.93905 3.42937 9.33179 4.96458 9.33179 6.85874C9.33179 8.75289 7.93905 10.2881 6.22068 10.2881C4.50231 10.2881 3.10957 8.75289 3.10957 6.85874C3.10957 4.96458 4.50231 3.42937 6.22068 3.42937ZM6.22068 9.14498C7.36609 9.14498 8.29475 8.12131 8.29475 6.85874C8.29475 5.59616 7.36609 4.57249 6.22068 4.57249C5.07527 4.57249 4.14661 5.59616 4.14661 6.85874C4.14661 8.12131 5.07527 9.14498 6.22068 9.14498Z" fill="white"/>
</svg>
