<?xml version="1.0" encoding="utf-8"?>
<!-- Generator: Adobe Illustrator 24.0.0, SVG Export Plug-In . SVG Version: 6.00 Build 0)  -->
<svg version="1.1" id="图层_1" xmlns="http://www.w3.org/2000/svg" xmlns:xlink="http://www.w3.org/1999/xlink" x="0px" y="0px"
	 viewBox="0 0 20 20" style="enable-background:new 0 0 20 20;" xml:space="preserve">
<style type="text/css">
	.st0{fill:#262626;}
	.st1{fill:none;stroke:#262626;}
</style>
<path class="st0" d="M10.3,7.6C10.7,7.6,11,7.4,11,7c0-0.4-0.3-0.6-0.6-0.6C9.9,6.4,9.5,6.6,9.5,7C9.5,7.4,9.9,7.6,10.3,7.6
	L10.3,7.6z M6.7,6.4C6.3,6.4,5.9,6.6,5.9,7c0,0.4,0.4,0.6,0.8,0.6c0.4,0,0.6-0.3,0.6-0.6C7.3,6.6,7.1,6.4,6.7,6.4z M18,11.6
	c0-2-1.9-3.7-4.2-3.8c0,0,0-0.1,0-0.1C13.3,5.6,11,4,8.4,4C5.4,4,3,6,3,8.5C3,9.8,3.7,11,5,12l-0.5,1.3c0,0,0,0.1,0,0.1
	c0,0,0,0.1,0.1,0.1c0,0,0.1,0.1,0.2,0.1c0,0,0.1,0,0.1,0l1.7-0.8l0.2,0c0.5,0.1,1,0.2,1.6,0.2C8.5,13,9,12.9,9,12.9
	c0.6,1.5,2.3,2.6,4.4,2.6c0.5,0,1-0.1,1.5-0.2l1.3,0.7c0,0,0.1,0,0.1,0c0.1,0,0.1,0,0.1-0.1c0.1-0.1,0.1-0.2,0.1-0.2l-0.3-1.1
	C17.4,13.7,18,12.7,18,11.6L18,11.6z M8.8,12.4c-0.1,0-0.3,0-0.4,0c-0.5,0-0.9-0.1-1.4-0.2l-0.3-0.1c0,0-0.1,0-0.1,0l-1.2,0.6
	l0.3-0.9c0-0.1,0-0.2-0.1-0.3c-1.3-0.9-1.9-1.9-1.9-3.1c0-2.1,2.1-3.9,4.7-3.9c2.3,0,4.4,1.4,4.8,3.2c-2.4,0-4.4,1.7-4.4,3.7
	C8.8,11.8,8.8,12.1,8.8,12.4C8.9,12.4,8.8,12.4,8.8,12.4L8.8,12.4z M15.7,14.2c-0.1,0.1-0.1,0.1-0.1,0.2l0.2,0.7L15,14.7
	c0,0-0.1,0-0.1,0c0,0,0,0-0.1,0c-0.5,0.1-0.9,0.2-1.4,0.2c-2.2,0-3.9-1.5-3.9-3.2c0-1.8,1.8-3.2,3.9-3.2c2.1,0,3.9,1.5,3.9,3.2
	C17.3,12.5,16.8,13.4,15.7,14.2L15.7,14.2z M12,10c-0.3,0-0.5,0.3-0.5,0.5c0,0.3,0.3,0.5,0.5,0.5c0.4,0,0.6-0.2,0.6-0.5
	C12.6,10.3,12.4,10,12,10z M14.8,10c-0.3,0-0.5,0.3-0.5,0.5c0,0.3,0.3,0.5,0.5,0.5c0.4,0,0.6-0.2,0.6-0.5C15.5,10.3,15.2,10,14.8,10
	z"/>
<path class="st1" d="M4,0.5h12c1.9,0,3.5,1.6,3.5,3.5v12c0,1.9-1.6,3.5-3.5,3.5H4c-1.9,0-3.5-1.6-3.5-3.5V4C0.5,2.1,2.1,0.5,4,0.5z"
	/>
</svg>
