<svg width="629" height="68" viewBox="0 0 629 68" fill="none" xmlns="http://www.w3.org/2000/svg">
<path d="M53.0666 12.2095C53.0666 11.5312 52.558 11.0224 51.8798 11.0224H15.5978C14.9197 11.0224 14.4111 11.5312 14.4111 12.2095C14.4111 12.8878 14.9197 13.3965 15.5978 13.3965H51.8798C52.558 13.3965 53.0666 12.8878 53.0666 12.2095Z" fill="white"/>
<path d="M32.552 16.6185V27.6409C32.552 28.3192 33.0606 28.8279 33.7388 28.8279C34.417 28.8279 34.9256 28.3192 34.9256 27.6409V16.6185C34.9256 15.9402 34.417 15.4314 33.7388 15.4314C33.0606 15.2618 32.552 15.9402 32.552 16.6185Z" fill="white"/>
<path d="M58.1528 36.1197C58.3224 35.9501 58.4919 35.611 58.4919 35.2718C58.4919 34.9327 58.3224 34.5935 58.1528 34.4239C57.1356 33.4065 55.9488 32.5586 54.762 31.8803V31.7107V24.9277V22.2145C54.762 20.8579 53.9143 19.6708 52.7275 18.8229C51.5407 17.9751 49.8453 17.4663 47.9803 17.4663H39.8423C39.1642 17.4663 38.6555 17.9751 38.6555 18.6534C38.6555 19.3317 39.1642 19.8404 39.8423 19.8404H47.9803C49.3367 19.8404 50.3539 20.1795 51.2016 20.6883C51.5407 20.8579 51.8798 21.197 52.0493 21.5362C52.2189 21.8753 52.3884 22.0449 52.3884 22.384V23.9102H39.8423C39.1642 23.9102 38.6555 24.419 38.6555 25.0973C38.6555 25.7756 39.1642 26.2843 39.8423 26.2843H52.3884V31.0324C50.693 30.5237 48.9976 30.1845 47.3022 30.1845C44.9286 30.1845 42.7245 30.6933 40.3509 31.7107C38.3164 30.8628 36.1124 30.3541 33.7388 30.3541C31.5348 30.3541 29.1612 30.8628 27.1267 31.7107C24.9226 30.6933 22.5491 30.1845 20.1755 30.1845C18.4801 30.1845 16.9542 30.5237 15.4283 30.8628V26.1147H27.9744C28.6526 26.1147 29.1612 25.606 29.1612 24.9277C29.1612 24.2494 28.6526 23.7406 27.9744 23.7406H15.5978V22.2145C15.5978 22.0449 15.7674 21.7057 15.9369 21.3666C16.4456 20.5187 17.9714 19.8404 20.0059 19.8404H28.1439C28.8221 19.8404 29.3307 19.3317 29.3307 18.6534C29.3307 17.9751 28.8221 17.4663 28.1439 17.4663H20.0059C18.141 17.4663 16.4456 17.9751 15.2588 18.8229C14.072 19.6708 13.2243 20.8579 13.2243 22.2145V31.8803C13.2243 31.8803 13.2243 31.8803 13.2243 32.0499C11.8679 32.7282 10.6811 33.7456 9.49434 34.7631C9.3248 34.9327 9.15526 35.2718 9.15526 35.611C9.15526 35.9501 9.3248 36.2893 9.49434 36.4589C9.66388 36.6284 10.003 36.798 10.3421 36.798C10.6811 36.798 11.0202 36.6284 11.1898 36.4589C13.7329 33.9152 16.9542 32.7282 20.345 32.7282C21.7013 32.7282 23.0577 32.8978 24.2445 33.4065C22.5491 34.4239 20.8536 35.7805 19.4973 37.4763H14.072C13.3938 37.4763 12.8852 37.985 12.8852 38.6633C12.8852 39.3416 13.3938 39.8504 14.072 39.8504H16.7846L12.8852 51.8903V52.2294C12.8852 53.586 13.3938 54.7731 14.4111 55.6209C15.2588 56.4688 16.4456 56.9776 17.8019 56.9776H26.9571C28.3135 56.9776 29.5003 56.4688 30.348 55.6209C31.1957 54.7731 31.8739 53.586 31.8739 52.2294V51.8903L27.8049 39.8504H31.3652C32.0434 39.8504 32.552 39.3416 32.552 38.6633C32.552 37.985 32.0434 37.4763 31.3652 37.4763H23.0577C24.414 36.1197 26.1094 35.1022 27.6353 34.4239C27.8049 34.4239 27.8049 34.4239 27.8049 34.2544C29.6698 33.4065 31.7043 33.0673 33.7388 33.0673C35.7733 33.0673 37.8078 33.5761 39.6728 34.2544C39.6728 34.2544 39.8423 34.2544 39.8423 34.4239C41.5377 35.1022 43.0636 36.1197 44.4199 37.4763H36.1124C35.4342 37.4763 34.9256 37.985 34.9256 38.6633C34.9256 39.3416 35.4342 39.8504 36.1124 39.8504H39.6728L35.7733 51.8903V52.2294C35.7733 53.586 36.2819 54.7731 37.2992 55.6209C38.1469 56.4688 39.3337 56.9776 40.69 56.9776H49.8453C51.2016 56.9776 52.3884 56.4688 53.2361 55.6209C54.0838 54.7731 54.5925 53.586 54.5925 52.2294V51.8903L50.5235 39.8504H53.2361C53.9143 39.8504 54.4229 39.3416 54.4229 38.6633C54.4229 37.985 53.9143 37.4763 53.2361 37.4763H47.9803C46.4544 35.7805 44.9286 34.4239 43.2332 33.4065C44.5895 33.0673 45.7763 32.7282 47.1326 32.7282C50.5235 32.7282 53.7447 34.0848 56.2879 36.4589C56.4574 36.6284 56.7965 36.798 57.1356 36.798C57.6442 36.6284 57.8137 36.4589 58.1528 36.1197ZM26.7876 54.2643H17.6323C16.4456 54.2643 15.2588 53.2469 15.2588 52.0599L19.3278 39.5112H24.9226L29.1612 52.0599C29.1612 53.2469 28.1439 54.2643 26.7876 54.2643ZM49.8453 54.2643H40.69C39.3337 54.2643 38.3164 53.2469 38.1469 52.0599L42.2159 39.5112H47.8108L52.0493 52.0599C52.2189 53.2469 51.2016 54.2643 49.8453 54.2643Z" fill="white"/>
<path d="M67.9862 33.9152C67.9862 26.4539 65.6127 19.3317 61.035 13.3965C61.035 13.2269 61.035 13.2269 61.035 13.0574C61.035 11.8703 60.0178 11.0224 59.0005 11.0224C57.8137 11.0224 56.966 12.0399 56.966 13.0574C56.966 14.2444 57.9833 15.0923 59.0005 15.0923C59.1701 15.0923 59.1701 15.0923 59.3396 15.0923C63.4086 20.5187 65.6127 26.9626 65.6127 33.9152C65.6127 40.6983 63.4086 47.1421 59.5092 52.5686C59.3396 52.5686 59.3396 52.5686 59.1701 52.5686C57.9833 52.5686 57.1356 53.586 57.1356 54.6035C57.1356 55.7905 58.1528 56.6384 59.1701 56.6384C60.3569 56.6384 61.2046 55.621 61.2046 54.6035C61.2046 54.4339 61.2046 54.4339 61.2046 54.2643C65.6127 48.4988 67.9862 41.3766 67.9862 33.9152Z" fill="white"/>
<path d="M14.2415 9.49626C15.2588 9.49626 16.1065 8.81796 16.276 7.8005C21.5318 4.2394 27.6353 2.37406 34.0779 2.37406C40.1814 2.37406 46.1154 4.06983 51.2016 7.46135C51.2016 8.64838 52.2189 9.49626 53.2361 9.49626C54.4229 9.49626 55.2706 8.4788 55.2706 7.46135C55.2706 6.27431 54.2534 5.42643 53.2361 5.42643C53.0666 5.42643 52.7275 5.42643 52.5579 5.59601C46.9631 1.86534 40.5205 0 34.0779 0C27.2962 0 20.8536 2.03491 15.4283 5.59601C14.9197 5.42643 14.5806 5.25686 14.2415 5.25686C13.0547 5.25686 12.207 6.27431 12.207 7.29177C12.0375 8.64838 13.0547 9.49626 14.2415 9.49626Z" fill="white"/>
<path d="M52.7275 58.8429C51.7102 58.8429 50.693 59.6908 50.693 60.7082C45.7763 63.7606 40.0119 65.4564 34.0779 65.4564C27.8049 65.4564 21.7014 63.591 16.4456 60.0299C16.276 59.0125 15.4283 58.1646 14.4111 58.1646C13.2243 58.1646 12.3766 59.182 12.3766 60.1995C12.3766 61.3865 13.3938 62.2344 14.4111 62.2344C14.7501 62.2344 15.0892 62.0648 15.2588 62.0648C20.8536 65.7955 27.2962 67.6609 34.0779 67.6609C40.5205 67.6609 46.624 65.7955 52.0493 62.5736C52.3884 62.7431 52.558 62.7431 52.897 62.7431C54.0838 62.7431 54.9315 61.7257 54.9315 60.7082C54.9315 59.8603 53.9143 58.8429 52.7275 58.8429Z" fill="white"/>
<path d="M8.64663 52.7382C4.57763 47.3117 2.37358 40.8678 2.37358 34.0848C2.37358 27.3017 4.57763 20.6883 8.64663 15.2618C9.66388 15.2618 10.6811 14.2444 10.6811 13.2269C10.6811 11.8703 9.66388 11.0224 8.47709 11.0224C7.2903 11.0224 6.44259 11.8703 6.44259 13.0574C6.44259 13.3965 6.44259 13.5661 6.61213 13.9052C2.37358 19.8404 0 26.6234 0 33.9152C0 41.207 2.37358 48.3292 6.61213 54.0948C6.61213 54.2643 6.44259 54.4339 6.44259 54.6035C6.44259 55.7905 7.45984 56.6384 8.47709 56.6384C9.66388 56.6384 10.5116 55.621 10.5116 54.6035C10.6811 53.586 9.83342 52.7382 8.64663 52.7382Z" fill="white"/>
<path fill-rule="evenodd" clip-rule="evenodd" d="M130.378 61.8953V64.9476H128.852V62.0648L126.139 58.1646H127.835L130.039 61.217L132.243 58.1646H133.26L130.378 61.8953ZM135.294 57.995H136.82V62.404C136.82 63.0823 136.99 63.591 137.329 63.9302C137.498 64.0998 137.668 64.2693 137.837 64.2693C138.007 64.2693 138.346 64.2693 138.516 64.2693C138.855 64.2693 139.363 64.2693 139.533 64.0998C140.211 63.7606 140.55 63.2519 140.55 62.2344V57.995H141.398V62.2344C141.398 63.0823 141.059 63.7606 140.55 64.2693C140.211 64.4389 139.872 64.6085 139.533 64.7781C139.194 64.7781 138.855 64.9476 138.346 64.9476C137.668 64.9476 137.159 64.7781 136.651 64.6085C135.973 64.2693 135.633 63.9302 135.294 63.4215C135.125 63.0823 135.125 62.7431 135.125 62.2344V57.995H135.294ZM150.384 64.7781H149.197L144.789 59.8604V64.7781H144.111V57.995H145.128L149.536 62.9127V57.995H150.384V64.7781ZM161.234 60.3691H159.708C159.708 60.1995 159.708 60.0299 159.708 59.8604C159.708 59.3516 159.539 59.0125 159.2 58.8429C159.03 58.6733 158.691 58.5037 158.352 58.5037C158.013 58.5037 157.674 58.6733 157.335 58.8429C156.996 59.182 156.826 59.5212 156.657 60.1995C156.487 60.7082 156.487 61.0474 156.487 61.7257C156.487 62.5736 156.657 63.2519 156.996 63.7606C157.165 63.9302 157.335 64.2693 157.674 64.2693C157.843 64.4389 158.182 64.4389 158.352 64.4389C158.691 64.4389 159.03 64.2693 159.2 64.0998C159.369 63.9302 159.539 63.591 159.708 63.0823C159.708 62.9127 159.708 62.7431 159.708 62.404H161.234C161.234 62.7431 161.065 63.0823 161.065 63.2519C160.895 63.7606 160.556 64.0998 160.047 64.4389C159.878 64.6085 159.539 64.6085 159.2 64.7781C158.861 64.7781 158.522 64.9476 158.182 64.9476C157.504 64.9476 156.826 64.7781 156.318 64.6085C155.809 64.4389 155.47 63.9302 155.131 63.4215C154.792 62.9127 154.792 62.2344 154.792 61.5561C154.792 60.7082 154.961 60.0299 155.3 59.3516C155.978 58.3342 156.826 57.8254 158.182 57.8254C159.03 57.8254 159.708 57.995 160.217 58.5037C160.726 58.8429 160.895 59.3516 161.065 59.6908C161.234 59.8604 161.234 60.0299 161.234 60.3691ZM163.608 64.7781V57.995H165.134V60.8778H168.355V57.995H169.881V64.7781H168.355V61.5561H165.134V64.7781H163.608ZM176.832 63.2519H173.441L172.763 64.9476H171.915L174.967 58.1646H175.984L179.036 64.9476H177.51L176.832 63.2519ZM176.663 62.5736L175.306 59.5212L173.95 62.5736H176.663ZM187.005 58.6733V64.7781H185.479V58.6733H183.614L183.105 58.8429V57.995L183.614 58.1646H189.039L189.548 57.995V58.8429L189.039 58.6733H187.005ZM196.16 63.2519H192.769L192.091 64.9476H191.243L194.295 58.1646H195.312L198.364 64.9476H196.838L196.16 63.2519ZM195.821 62.5736L194.464 59.5212L193.108 62.5736H195.821ZM206.841 64.7781H205.824L201.416 59.8604V64.7781H200.568V57.995H201.585L205.993 62.9127V57.995H206.841V64.7781ZM215.827 60.1995H214.131C214.131 59.8604 213.962 59.5212 213.962 59.3516C213.792 59.0125 213.623 58.6733 213.284 58.5037C213.114 58.3342 212.775 58.3342 212.436 58.3342C212.097 58.3342 211.588 58.5037 211.249 58.6733C210.91 59.0125 210.74 59.3516 210.571 59.8604C210.401 60.1995 210.401 60.7082 210.401 61.217C210.401 62.0648 210.571 62.7431 210.91 63.2519C211.08 63.591 211.419 63.7606 211.588 63.9302C211.927 64.0998 212.097 64.0998 212.436 64.0998C212.944 64.0998 213.284 63.9302 213.623 63.7606C213.792 63.591 213.962 63.591 213.962 63.2519V61.5561H212.605L212.097 61.7257V60.8778L212.605 61.0474H215.488V63.591C215.149 63.9302 214.809 64.0998 214.64 64.2693C213.962 64.6085 213.284 64.7781 212.436 64.7781C211.927 64.7781 211.249 64.6085 210.74 64.4389C210.062 64.0998 209.554 63.7606 209.215 63.0823C208.875 62.404 208.706 61.7257 208.706 61.0474C208.706 60.1995 209.045 59.3516 209.554 58.8429C209.893 58.5037 210.062 58.1646 210.571 57.995C211.08 57.6559 211.758 57.4863 212.436 57.4863C213.114 57.4863 213.623 57.6559 214.131 57.8254C214.47 57.995 214.809 58.1646 214.979 58.5037C215.149 58.8429 215.318 59.0125 215.488 59.3516C215.827 59.8604 215.827 60.0299 215.827 60.1995Z" fill="white"/>
<path fill-rule="evenodd" clip-rule="evenodd" d="M90.3658 40.5287C88.8399 40.6983 87.6531 40.8678 87.9922 39.3416H87.8226C87.8226 39.0025 87.8226 38.6633 87.8226 38.4938C88.5008 37.985 90.5353 37.3067 91.2135 37.6459C91.7221 37.6459 91.8916 37.6459 92.5698 37.8155C93.7566 37.6459 95.1129 37.4763 96.2997 37.3067C97.9951 37.1372 99.8601 37.1372 101.556 37.1372C101.725 37.1372 101.725 37.1372 102.234 37.1372C102.742 37.1372 103.251 37.1372 103.76 37.1372C104.268 36.9676 104.777 36.6284 105.285 36.798C105.285 36.9676 105.285 37.3067 105.455 37.4763C105.625 37.6459 105.625 37.6459 105.794 37.985C105.964 37.985 106.133 38.1546 106.303 38.4938C106.133 39.0025 106.133 39.1721 105.794 39.6808C105.285 39.6808 104.099 40.0199 104.099 40.5287H103.929C103.251 42.2244 103.081 44.2593 102.912 46.1247C102.403 46.9726 101.216 47.4813 100.199 47.4813C100.199 47.4813 100.199 47.4813 100.199 47.3117C99.8601 47.3117 99.8601 47.3117 96.4693 47.4813C95.452 47.4813 94.0957 47.4813 92.9089 47.4813C92.7394 47.4813 92.5698 47.4813 92.5698 47.4813C92.2307 47.8204 91.383 47.6509 91.0439 47.6509C91.0439 47.6509 91.0439 47.6509 91.0439 47.4813C90.5353 47.6509 90.1962 47.6509 89.6876 47.4813C89.6876 46.1247 90.7049 44.4289 91.5526 43.4115V43.2419H91.7221C91.8916 42.394 92.7394 41.207 92.4003 40.5287C91.7221 40.3591 91.383 40.5287 90.8744 40.5287C90.5353 40.5287 90.3658 40.5287 90.3658 40.5287ZM100.369 42.5636C100.708 42.0549 100.199 42.2244 100.538 41.5461H100.708C100.708 41.207 100.877 40.1895 100.708 40.0199C99.521 40.0199 97.8256 40.0199 96.8084 40.0199C95.9606 40.3591 94.9434 42.394 94.9434 43.2419C95.1129 43.4115 95.2825 43.7506 95.452 43.7506C97.6561 44.0898 99.1819 43.9202 100.369 42.5636ZM101.386 32.389C102.064 32.389 102.064 32.389 103.251 32.389C103.929 32.389 104.607 32.389 105.116 32.389C105.116 32.389 105.116 32.389 105.116 32.5586C104.946 32.7282 104.946 32.7282 104.777 32.7282C104.607 33.4065 104.268 33.7456 103.929 34.4239H103.76C103.59 35.2718 98.1647 35.1022 97.317 34.9327C96.6388 35.1022 95.9606 35.2718 95.452 35.2718C94.0957 35.1022 93.7566 34.9327 93.5871 34.9327C93.5871 34.9327 93.5871 34.9327 93.5871 35.1022C93.248 34.9327 93.0784 34.9327 92.7394 35.1022C92.5698 35.1022 92.5698 35.1022 92.4003 35.2718C92.4003 35.2718 92.4003 35.2718 92.4003 35.1022C92.0612 35.2718 92.0612 35.2718 92.0612 35.2718C91.8916 35.2718 91.8916 35.2718 91.7221 35.1022C91.5526 35.1022 91.383 35.1022 91.383 35.2718C91.383 35.2718 91.383 35.2718 91.383 35.1022C90.5353 35.2718 89.0094 35.611 88.5008 34.7631C88.5008 34.0848 88.6703 33.4065 89.0094 32.8978C90.7049 32.7282 92.4003 33.0673 93.9261 32.7282V32.8978H94.0957C94.0957 32.8978 94.0957 32.8978 94.0957 33.0673C94.2652 33.0673 94.4348 32.8978 94.6043 32.8978C94.6043 32.7282 94.7739 32.7282 94.7739 32.5586C96.8084 32.389 99.3515 32.0499 101.386 32.389ZM110.711 36.6284C110.711 36.798 110.711 36.798 110.711 36.9676C111.219 37.1372 111.389 37.1372 112.067 36.9676C112.237 36.9676 112.576 36.9676 112.745 36.9676V37.1372C112.745 37.1372 112.745 37.1372 112.745 37.3067C112.915 37.3067 112.915 37.3067 113.084 37.3067C113.254 37.3067 113.254 37.3067 113.423 37.3067C113.593 37.3067 113.763 37.3067 113.932 37.3067C115.288 37.3067 115.288 37.3067 115.797 37.3067H115.967C118.001 36.9676 120.544 37.3067 122.07 37.1372C122.07 37.3067 122.07 37.3067 122.24 37.4763C122.409 37.3067 122.409 37.3067 122.579 37.3067L122.748 37.1372C122.918 37.1372 122.918 37.1372 123.087 37.1372V36.9676C123.257 36.9676 123.596 36.9676 123.765 36.9676C124.952 37.1372 125.63 36.9676 126.817 36.6284C127.156 36.6284 127.326 36.6284 127.665 36.6284C127.665 36.4589 127.835 36.4588 127.835 36.2893C128.174 36.4588 128.343 36.6284 128.682 36.6284C128.682 36.798 128.682 36.798 128.682 36.9676C128.852 37.1372 128.852 37.3067 129.021 37.4763C129.021 38.3242 128.682 40.0199 127.326 40.0199C126.817 40.3591 124.952 40.0199 124.444 40.0199C124.274 40.0199 124.105 40.0199 124.105 40.0199C123.596 40.0199 123.087 40.0199 122.748 40.1895C122.748 40.6983 122.918 41.207 123.257 41.7157C123.426 42.0549 123.765 42.7332 124.105 43.9202C124.274 44.9377 124.444 45.7855 124.444 46.803C124.444 46.9726 124.274 46.9726 124.105 46.9726V47.1421C123.935 47.1421 122.748 47.6509 122.579 47.6509C121.731 47.4813 121.053 47.3117 120.375 47.1421C119.188 46.4638 118.171 46.9726 117.153 46.6334C115.967 46.6334 115.967 46.6334 114.61 46.6334C114.61 46.6334 114.61 46.6334 114.61 46.803C113.423 46.6334 111.898 46.803 110.88 46.9726C110.541 47.4813 109.185 47.3117 108.676 47.1421V47.3117H108.507C108.507 47.3117 108.507 47.3117 108.337 47.1421C107.998 47.1421 107.829 47.1421 107.489 47.1421C106.981 46.6334 107.32 45.9551 107.32 45.4464C107.32 45.4464 107.32 45.4464 107.489 45.4464C107.829 44.2593 109.524 41.5461 108.507 40.5287C106.133 40.1895 106.642 38.4938 107.659 37.1372C107.829 36.9676 107.998 36.9676 108.168 36.6284C109.524 37.3067 110.033 36.9676 110.711 36.6284ZM113.932 40.5287C112.915 40.6983 112.745 42.0549 112.745 42.7332C112.915 44.4289 114.61 44.0898 116.136 43.7506C116.984 43.9202 118.679 43.9202 119.527 43.7506C119.696 43.581 119.696 43.581 119.866 43.2419C120.036 42.9027 119.527 42.394 119.188 40.6983C118.849 40.6983 118.849 40.5287 118.679 40.3591C118.51 40.3591 116.475 40.3591 116.306 40.3591C115.967 40.3591 115.119 40.3591 114.949 40.3591C114.61 40.5287 114.271 40.5287 113.932 40.5287ZM110.202 35.2718C108.676 35.1022 108.168 34.7631 108.168 33.5761C108.507 33.2369 108.168 32.7282 108.846 32.5586C109.015 32.2194 110.033 32.389 110.541 32.2194C110.711 32.2194 110.711 32.389 111.05 32.389C112.237 31.8803 113.423 32.0499 114.78 31.8803C115.458 31.8803 115.797 31.8803 116.475 31.8803C116.645 31.8803 116.984 31.8803 117.153 31.8803H117.323H117.492C117.832 31.8803 117.832 31.8803 118.171 31.8803C118.679 31.8803 119.527 32.0499 120.036 31.8803C120.375 32.0499 120.375 32.0499 120.714 32.0499C121.053 32.0499 121.053 32.0499 121.561 32.0499C121.901 32.2194 121.901 32.2194 122.409 32.0499C122.579 32.2194 122.918 32.5586 123.257 32.7282C123.257 32.7282 123.257 32.7282 123.426 32.7282C123.426 32.7282 123.596 32.7282 123.596 32.8978C123.596 32.8978 123.596 32.8978 123.596 33.0673H123.765C123.765 33.2369 123.765 33.2369 123.765 33.4065C123.765 33.4065 123.935 33.4065 123.935 33.5761C123.765 33.9152 123.765 33.7456 123.765 34.2544C123.596 34.4239 123.596 34.7631 123.596 34.9327C123.426 34.9327 123.426 34.9327 122.748 35.2718C121.561 35.2718 120.375 35.2718 119.188 35.1022C119.188 35.1022 119.188 35.1022 119.188 34.9327C118.679 34.9327 118.51 34.9327 117.662 34.9327C115.288 35.1022 111.05 34.9327 110.202 35.2718ZM99.8601 27.6409C99.8601 27.4713 99.8601 27.4713 99.8601 27.6409C99.6906 27.4713 99.6906 27.4713 99.6906 27.4713V27.3017C99.6906 27.4713 99.6906 27.4713 99.6906 27.6409C99.6906 27.6409 99.6906 27.8105 99.8601 27.6409ZM87.8226 28.3192C87.8226 27.8105 86.8054 27.6409 86.4663 27.1322C86.2968 26.793 86.2968 25.9451 86.6358 25.9451C86.8054 25.606 87.8226 22.8928 87.1445 22.8928C87.1445 22.7232 86.9749 22.5536 86.9749 22.2145C86.9749 21.8753 86.6358 21.7057 86.6358 21.3666C86.8054 21.3666 86.8054 21.3666 86.8054 21.197C87.1445 21.197 87.314 21.0274 87.6531 21.0274C87.8226 21.0274 88.3313 20.6883 88.3313 20.8579C88.5008 20.8579 90.1962 21.0274 90.1962 20.8579C90.5353 20.8579 90.5353 21.0274 90.8744 21.0274C91.383 21.0274 91.5526 21.0274 92.0612 21.0274C92.7394 21.0274 93.0784 20.8579 93.5871 21.5362C93.7566 21.8753 93.7566 22.0449 93.5871 22.384C93.4175 22.7232 93.5871 23.2319 93.248 23.2319C93.248 23.5711 92.9089 23.5711 92.9089 23.9102C92.5698 24.0798 92.7394 24.5885 92.4003 24.7581C92.4003 25.2668 92.0612 25.7756 92.0612 26.2843C92.0612 26.2843 91.7221 27.4713 91.7221 27.6409C91.383 27.8105 91.383 28.4888 91.383 28.8279C90.8744 29.1671 90.5353 29.1671 90.0267 29.1671C89.5181 29.1671 89.0094 28.8279 88.6703 28.8279C88.8399 28.6584 88.1617 28.3192 87.8226 28.3192C87.8226 28.3192 87.9922 28.3192 87.8226 28.3192ZM109.863 25.9451C110.033 25.9451 110.202 25.9451 110.372 25.9451C110.711 25.9451 110.88 25.7756 111.219 25.7756C111.558 25.7756 112.067 25.7756 112.406 25.9451C112.745 25.9451 112.915 25.7756 113.254 25.7756C114.441 25.7756 115.458 25.7756 116.475 25.9451C116.475 26.2843 117.832 26.1147 118.171 25.9451C118.51 25.7756 118.51 25.606 118.849 25.606C119.018 25.606 119.188 25.606 119.188 25.7756C119.188 25.7756 119.188 25.7756 119.357 25.9451L119.527 26.1147C119.527 26.2843 119.357 26.4539 119.188 26.6234C119.018 26.793 119.018 27.1322 119.018 27.4713C119.018 27.8105 118.679 28.1496 118.679 28.3192C118.34 28.4888 118.51 28.8279 118.171 28.9975C118.171 29.3367 117.492 29.6758 117.153 29.8454C116.984 29.8454 116.645 29.8454 116.475 29.6758C116.136 29.6758 115.627 29.6758 115.288 29.5062C114.949 29.5062 114.78 29.5062 114.441 29.5062C114.441 29.5062 114.441 29.5062 114.271 29.5062C113.932 29.5062 113.763 29.5062 113.423 29.5062C112.576 29.5062 111.728 29.5062 111.389 29.5062C111.05 29.5062 109.524 29.3367 109.524 29.1671C109.354 29.1671 107.15 29.1671 107.15 28.9975C106.811 28.9975 104.438 29.1671 104.438 28.9975C103.59 28.8279 102.573 29.1671 101.725 29.3367C101.386 29.3367 99.521 29.5062 99.521 29.8454C98.8429 29.8454 98.5038 30.3541 97.6561 30.1845C97.317 30.015 96.9779 30.015 96.4693 29.8454C96.2997 29.6758 96.1302 29.5062 95.9606 29.3367C95.9606 29.1671 95.9606 28.8279 95.7911 28.8279C95.7911 27.98 95.2825 27.3017 95.2825 26.2843C95.6216 26.2843 97.1474 26.1147 97.1474 25.9451C98.5038 25.9451 100.03 25.7756 101.386 25.7756C101.895 25.7756 102.912 25.9451 103.081 25.4364C103.251 25.4364 103.251 24.9277 103.59 24.7581C103.76 24.7581 104.099 23.9102 104.268 23.5711C104.268 23.2319 104.268 23.0623 104.268 22.8928C101.386 22.5536 101.386 22.5536 98.6733 22.5536C98.6733 22.384 98.5038 22.384 98.5038 22.2145C97.4865 22.5536 96.8084 22.0449 95.7911 21.8753C95.7911 21.5362 95.7911 21.5362 96.1302 21.197C96.8084 21.3666 97.317 21.3666 97.9951 21.5362C97.9951 21.3666 97.9951 21.3666 97.9951 21.197C99.0124 21.0274 100.03 20.6883 101.047 20.5187H101.216C101.386 20.5187 101.386 20.5187 101.386 20.5187C102.234 20.5187 103.251 20.3491 103.76 20.1795H103.929H104.268C104.268 18.9925 104.099 17.9751 103.76 17.4663C103.42 17.4663 103.081 17.4663 102.573 17.4663C102.573 17.4663 102.573 17.4663 102.573 17.2968H102.403C102.403 17.2968 102.403 17.2968 102.403 17.4663C101.725 17.4663 101.047 17.8055 100.538 17.9751C100.199 17.9751 100.199 17.9751 98.6733 17.6359C97.9951 17.6359 97.317 17.4663 96.6388 17.4663C96.6388 17.6359 96.6388 17.6359 96.4693 17.6359C95.452 16.9576 92.5698 18.4838 91.8916 18.6534C91.2135 18.8229 90.5353 18.8229 89.8571 18.9925C87.6531 19.5012 85.9577 19.6708 84.0927 18.4838H83.9232C83.5841 17.8055 83.245 17.8055 83.5841 17.1272C83.7536 17.1272 83.7536 17.1272 83.7536 16.9576C85.9577 16.4489 86.1272 16.788 89.0094 16.4489C89.5181 16.2793 90.3658 16.4489 91.0439 16.4489C93.9261 16.2793 96.9779 15.7706 100.03 15.601C100.708 15.601 101.556 15.601 102.234 15.601C102.403 15.601 102.573 15.601 102.573 15.601C103.59 15.601 104.777 15.601 105.794 15.601C107.659 15.601 109.524 15.601 111.389 15.4314C112.406 15.4314 113.423 15.4314 114.441 15.4314C116.306 15.601 118.171 15.601 120.036 15.7706C122.24 15.7706 124.444 15.9401 126.817 16.2793C128.513 16.2793 128.343 16.4489 129.53 16.2793H131.056C131.395 16.1097 132.243 16.1097 132.582 16.1097C132.582 17.2968 132.243 17.9751 131.564 18.9925C130.378 19.3317 129.53 19.3317 128.513 18.9925C127.665 18.8229 122.918 17.6359 122.24 18.3142C121.561 18.1446 121.053 18.1446 120.544 17.9751C120.544 17.9751 120.544 17.9751 120.544 17.8055C119.527 17.6359 118.34 17.6359 117.323 17.4663C116.306 17.6359 115.288 17.8055 114.271 17.4663C113.763 17.4663 113.423 17.4663 112.915 17.4663V17.2968C111.898 17.4663 110.372 17.9751 109.015 17.9751C109.015 18.6534 108.846 19.5012 108.846 20.1795H109.185C109.185 20.3491 109.185 20.3491 109.185 20.5187C109.354 20.5187 109.354 20.5187 109.524 20.6883C109.863 20.6883 110.033 20.6883 110.372 20.6883C110.711 20.6883 110.88 20.6883 111.219 20.6883C111.728 20.6883 112.237 20.8579 112.745 20.8579C113.254 20.8579 113.763 20.8579 114.102 20.6883C114.102 20.8579 115.119 20.5187 115.119 20.8579C115.458 20.8579 115.627 21.0274 115.967 21.0274C115.967 21.197 116.984 21.197 117.153 21.197C118.34 21.197 119.527 21.0274 120.714 21.0274C120.883 21.0274 121.392 21.0274 121.561 21.0274C121.731 21.0274 122.24 20.8579 122.579 20.8579C123.766 20.8579 125.122 20.6883 126.309 20.5187C126.817 20.5187 127.495 20.8579 128.004 21.197C128.343 21.5362 128.174 22.384 128.343 22.8928C128.174 22.8928 128.343 24.419 128.343 24.5885C128.343 25.2668 127.835 25.7756 127.835 26.4539C127.665 26.4539 127.665 27.6409 127.835 27.6409C127.835 28.1496 127.665 28.1496 127.495 28.6584C127.495 28.6584 126.987 29.3367 126.987 29.5062C126.817 30.015 126.648 30.015 125.97 30.015C125.8 30.015 125.291 30.1845 125.291 30.015C124.783 30.015 125.291 30.015 124.952 30.015C124.952 29.8454 124.444 30.015 124.274 30.015C123.935 30.015 123.935 30.015 123.596 29.8454C123.257 29.6758 122.579 28.8279 122.579 28.8279C122.579 28.6584 122.409 28.3192 122.409 28.1496C122.409 27.98 122.579 27.8105 122.579 27.6409C122.748 27.4713 122.579 26.9626 122.579 26.6234C122.748 26.6234 122.409 24.9277 122.24 24.9277C122.24 24.4189 121.731 23.5711 121.053 23.5711C120.883 23.5711 119.696 23.2319 119.696 23.2319C119.018 23.2319 118.679 22.7232 117.832 22.8928C117.832 22.7232 116.475 22.5536 116.136 22.5536C115.797 22.5536 115.967 22.384 115.458 22.384C114.78 22.384 115.458 22.384 114.78 22.384C114.271 22.384 113.763 22.2145 113.423 22.384C113.084 22.5536 112.576 22.384 112.237 22.5536C111.898 22.5536 111.389 22.7232 111.05 22.7232C110.541 22.7232 110.033 22.7232 109.354 22.7232C109.354 23.0623 109.354 23.5711 109.354 23.7406C109.354 24.2494 109.185 24.5885 109.015 24.9277C109.015 25.2668 109.185 25.2668 109.185 25.606C109.524 25.4364 109.694 25.7756 109.863 25.9451Z" fill="white"/>
<path fill-rule="evenodd" clip-rule="evenodd" d="M250.413 47.99C250.244 47.99 249.905 47.8205 249.735 47.8205C246.683 46.2943 243.801 45.616 241.088 45.1072C240.749 45.1072 240.41 45.1072 240.241 45.2768C240.071 45.2768 239.732 45.1072 239.563 45.1072C238.545 44.7681 237.528 44.5985 236.68 44.2594C236.511 44.2594 236.172 44.2594 236.002 44.2594C235.833 44.2594 235.833 44.2594 235.663 44.2594C235.324 44.2594 234.815 44.2594 234.476 44.2594C233.629 44.2594 232.781 44.4289 232.103 44.4289C231.764 44.4289 231.425 44.4289 231.255 44.4289C231.085 44.4289 231.085 44.4289 230.916 44.4289C230.577 44.4289 230.238 44.4289 230.068 44.4289C229.899 44.4289 229.899 44.4289 229.729 44.4289C229.56 44.4289 229.56 44.4289 229.39 44.4289C229.22 44.4289 228.881 44.4289 228.712 44.4289C228.542 44.4289 228.203 44.4289 228.034 44.4289C227.864 44.4289 227.695 44.4289 227.525 44.4289C227.016 44.4289 226.338 44.5985 225.83 44.5985C225.491 44.5985 225.321 44.5985 225.151 44.5985C224.812 44.5985 224.473 44.7681 224.304 44.7681C224.134 44.7681 223.795 44.7681 223.626 44.9377C223.287 44.9377 222.778 44.9377 222.439 44.9377C221.93 44.7681 221.422 44.7681 220.913 44.7681C220.065 45.1072 219.048 45.4464 218.2 45.7855C217.692 45.7855 217.353 45.7855 217.013 45.9551C216.844 45.9551 216.505 45.9551 216.335 46.1247C216.166 46.1247 215.996 46.1247 215.827 46.1247C215.657 46.1247 215.318 46.1247 215.149 46.2943C214.809 46.2943 214.47 46.4638 214.301 46.6334C214.131 46.6334 213.962 46.6334 213.792 46.6334C213.623 46.4638 213.284 46.4638 213.114 46.2943C212.944 46.2943 212.605 46.2943 212.436 46.1247C211.927 45.9551 211.419 45.7855 210.91 45.616C210.74 45.616 210.74 45.616 210.571 45.616C210.571 45.2768 210.571 44.9377 210.571 44.5985C210.74 44.5985 210.74 44.5985 210.91 44.5985C211.588 43.9202 211.588 43.5811 212.775 43.5811C212.944 43.2419 212.944 43.2419 213.623 43.2419C213.623 43.4115 213.623 43.4115 213.623 43.5811C215.827 42.7332 218.2 42.5636 219.896 42.5636C220.235 42.5636 220.574 42.5636 220.913 42.5636C221.082 42.394 221.422 42.394 221.591 42.2244C221.761 42.2244 221.93 42.2244 222.269 42.2244C223.965 41.7157 223.795 41.8853 225.491 42.2244C227.356 41.7157 229.39 41.7157 230.238 39.8504C230.238 39.5112 230.407 39.3417 230.407 39.0025C230.068 38.8329 229.899 38.6633 229.729 38.4938C229.56 38.4938 229.221 38.4938 229.051 38.4938C227.356 38.6633 225.83 39.0025 224.304 39.1721C224.134 39.1721 224.134 39.1721 223.965 39.1721C223.795 39.1721 223.456 39.1721 223.287 39.3417C223.287 39.3417 223.287 39.3417 223.287 39.5112C223.117 39.5112 223.117 39.5112 222.947 39.5112C222.778 39.5112 222.608 39.5112 222.439 39.5112C222.269 39.5112 221.93 39.5112 221.761 39.5112C221.591 39.5112 221.252 39.5112 221.082 39.5112C220.913 39.5112 220.574 39.6808 220.404 39.8504C220.235 39.8504 220.065 39.8504 219.896 39.8504C218.878 39.6808 218.709 39.1721 218.2 38.6633C218.2 38.6633 218.031 38.6633 218.031 38.4938C217.692 38.4938 217.692 38.4938 217.692 37.985C217.861 37.985 217.861 37.985 218.031 37.985C218.2 37.985 218.2 37.985 218.37 37.8155C218.539 37.8155 218.709 37.8155 219.048 37.8155C219.218 37.8155 219.387 37.8155 219.726 37.985C220.574 37.8155 221.252 37.4763 222.1 37.3067C222.439 37.3067 222.608 37.3067 222.947 37.3067C223.287 37.1372 223.795 37.1372 224.134 36.9676C224.304 36.9676 224.473 36.9676 224.812 36.798C224.812 36.6284 224.812 36.6284 225.321 36.6284C225.491 36.6284 225.491 36.6284 225.66 36.6284C225.83 36.6284 225.83 36.6284 225.999 36.6284C226.338 36.6284 226.847 36.6284 227.186 36.4589C227.356 36.4589 227.525 36.4589 227.695 36.6284C228.712 36.6284 227.864 36.1197 229.22 36.4589C230.068 35.9501 230.577 35.611 230.577 34.5935C230.238 34.4239 229.899 34.2544 229.56 34.0848C229.39 34.0848 229.051 34.0848 228.881 34.2544C228.712 34.2544 228.373 34.4239 228.203 34.5935C228.034 34.5935 227.695 34.4239 227.525 34.4239C227.186 34.4239 226.677 34.5935 226.338 34.7631C225.999 34.7631 225.66 34.7631 225.491 34.7631C225.321 34.7631 225.321 34.7631 225.151 34.7631C224.982 34.7631 224.812 34.7631 224.643 34.9327C224.473 34.9327 224.134 34.7631 223.965 34.7631C222.439 34.4239 222.1 34.2544 220.913 34.7631C220.743 34.7631 220.404 34.7631 220.235 34.7631C220.065 34.7631 219.896 34.7631 219.726 34.5935C219.557 34.5935 219.387 34.5935 219.218 34.5935C219.218 34.2544 219.218 34.0848 219.218 33.7456C219.387 33.7456 219.557 33.7456 219.726 33.7456C220.065 33.0673 220.404 32.389 220.743 31.5412C220.743 30.5237 220.743 29.8454 220.913 28.1496C221.252 27.9801 221.591 27.8105 222.1 27.6409C222.1 27.4713 222.1 27.4713 222.608 27.4713C222.778 27.4713 222.947 27.4713 223.287 27.6409C223.456 27.6409 223.626 27.6409 223.965 27.6409C224.134 27.6409 224.134 27.6409 224.304 27.6409C224.643 27.4713 224.812 27.4713 225.151 27.3018C225.491 27.3018 225.999 27.4713 226.338 27.4713C226.508 27.4713 226.677 27.4713 227.016 27.4713C227.356 27.4713 227.525 27.3018 227.864 27.3018C227.864 27.1322 229.051 27.1322 229.051 27.3018C229.051 27.3018 229.051 27.3018 229.051 27.4713C229.56 27.3018 230.238 27.1322 230.916 26.9626C231.085 26.9626 231.085 26.9626 231.255 26.9626C232.442 26.9626 233.629 26.9626 234.815 26.9626C234.985 26.9626 235.154 26.9626 235.494 26.9626C235.663 26.9626 235.663 26.9626 235.833 26.793C236.002 26.793 236.172 26.793 236.511 26.793C236.511 26.793 236.511 26.793 236.511 26.9626C236.68 26.9626 236.68 26.9626 236.85 26.9626C237.528 26.9626 238.037 26.9626 238.715 26.9626C238.884 26.9626 238.884 26.9626 239.054 26.9626C239.054 26.9626 239.054 26.9626 239.054 26.793C239.393 26.793 239.563 26.793 239.902 26.793C240.241 26.793 240.241 26.793 240.58 26.9626C240.749 26.9626 240.749 26.9626 240.919 26.9626C241.428 26.9626 241.427 26.9626 241.427 27.1322C241.597 27.1322 241.767 26.9626 242.106 26.9626C242.275 26.9626 242.275 26.9626 242.445 27.1322C242.614 27.1322 242.784 27.1322 243.123 27.3018C243.462 27.3018 243.801 27.1322 244.14 27.1322C244.818 27.8105 244.818 27.8105 244.988 28.3192C244.988 28.6584 244.988 28.9975 245.157 29.3367C244.988 29.3367 244.818 29.3367 244.649 29.3367C243.462 30.6933 242.275 32.7282 240.58 33.4065C240.58 33.5761 240.58 33.5761 240.58 33.7456C240.41 33.7456 240.071 33.7456 239.902 33.5761C239.732 33.5761 239.732 33.5761 239.563 33.5761C239.223 33.5761 238.884 33.7456 238.715 33.9152C237.189 34.0848 237.867 33.9152 236.341 33.9152C236.172 33.9152 236.172 33.9152 236.002 33.9152C235.833 33.9152 235.833 33.9152 235.663 33.9152C235.494 33.9152 235.154 33.9152 234.985 34.0848C234.815 34.0848 234.476 34.0848 234.307 33.9152C234.137 33.9152 234.137 33.9152 233.968 33.9152C233.968 33.9152 233.968 33.9152 233.968 34.0848C233.798 34.2544 233.629 34.0848 233.629 34.2544C233.459 34.0848 233.629 34.4239 233.629 34.4239C233.459 34.5935 233.459 34.5935 233.29 34.7631C233.459 35.4414 233.459 35.4414 234.137 36.2893C234.646 36.2893 234.985 36.4589 235.494 36.4589C235.663 36.4589 235.663 36.4589 235.833 36.4589C236.002 36.4589 236.172 36.2893 236.511 36.2893C236.68 36.2893 236.85 36.2893 237.019 36.4589C237.189 36.4589 237.189 36.4589 237.358 36.4589C237.528 36.4589 237.698 36.4589 238.037 36.4589C238.206 36.4589 238.206 36.4589 238.376 36.4589C239.223 36.2893 240.58 36.6284 241.597 36.798C241.767 36.798 241.767 36.798 241.936 36.798C242.275 36.798 242.784 36.798 243.123 36.798C243.292 36.798 243.462 36.798 243.632 36.798C243.971 36.798 244.31 36.798 244.479 36.798C244.479 36.798 244.479 36.798 244.479 36.6284C244.479 36.2893 244.479 36.2893 245.157 36.2893C245.157 36.2893 245.157 36.4589 245.157 36.6284C245.157 36.6284 245.157 36.798 245.327 36.9676C245.496 37.4763 245.496 37.4763 245.327 38.4938C244.988 38.6633 244.818 38.8329 244.479 39.0025C244.14 39.0025 243.801 39.0025 243.632 39.1721C243.292 39.0025 242.784 39.0025 242.445 38.8329C242.106 38.8329 241.767 38.6633 241.597 38.6633C241.258 38.6633 240.749 38.6633 240.41 38.6633C240.241 38.6633 239.902 38.6633 239.732 38.6633C239.054 38.6633 238.376 38.6633 237.698 38.8329C237.528 38.8329 237.189 38.8329 237.019 38.8329C236.68 38.8329 236.341 38.6633 236.172 38.6633C236.002 38.6633 235.663 38.6633 235.494 38.6633C235.324 38.6633 234.985 38.6633 234.815 38.8329C234.646 38.8329 234.307 38.8329 234.137 38.8329C233.798 39.0025 233.798 39.0025 233.629 39.1721C233.629 39.3417 233.629 39.6808 233.798 39.8504C233.798 40.1895 233.798 40.5287 233.798 40.6983C234.307 41.0374 234.815 41.207 235.324 41.5461C235.494 41.5461 235.663 41.7157 236.002 41.8853C236.172 41.8853 236.341 41.8853 236.511 41.8853C236.68 41.8853 236.85 41.8853 237.189 41.8853C237.528 41.8853 237.867 41.8853 238.037 41.8853C238.206 41.8853 238.376 41.8853 238.715 41.7157C239.054 41.7157 239.223 41.7157 239.563 41.8853C239.732 41.8853 239.902 41.8853 240.241 41.7157C240.58 41.7157 241.088 41.8853 241.427 41.8853C241.597 41.8853 241.597 41.8853 241.767 41.8853C242.106 41.8853 242.445 41.8853 242.614 41.8853C242.784 41.8853 242.784 41.8853 242.953 41.8853C244.31 41.7157 243.462 42.2244 244.14 42.2244C244.31 42.2244 244.479 42.2244 244.818 42.2244C245.327 42.2244 245.836 42.394 246.344 42.5636C246.514 42.5636 246.514 42.5636 246.683 42.5636C246.853 42.5636 247.022 42.394 247.361 42.394C247.701 42.394 247.87 42.394 248.209 42.394C248.548 42.394 249.057 42.394 249.396 42.394C249.566 42.394 249.735 42.394 250.074 42.5636C250.244 42.5636 250.413 42.7332 250.583 42.9027C250.922 42.7332 251.43 42.7332 251.77 42.5636C251.939 42.5636 252.109 42.5636 252.448 42.5636C252.617 42.5636 252.787 42.5636 252.956 42.5636C253.295 42.5636 253.635 42.5636 253.804 42.5636C253.974 42.5636 254.143 42.394 254.482 42.394C254.821 42.394 254.991 42.394 255.33 42.394C255.669 42.394 256.008 42.394 256.178 42.2244C256.347 42.2244 256.347 42.2244 256.517 42.2244C256.686 42.0549 256.856 42.0549 257.195 41.8853C257.364 41.8853 257.364 41.8853 257.534 41.7157C257.704 41.7157 257.704 41.7157 257.873 41.7157C257.873 42.0549 257.704 42.5636 257.704 42.9027C257.534 43.2419 257.534 43.5811 257.534 43.9202C257.534 44.0898 257.364 44.4289 257.364 44.5985C257.364 44.7681 257.364 44.7681 257.364 44.9377C257.195 44.9377 256.856 44.9377 256.686 44.9377C256.686 45.1072 256.686 45.2768 256.686 45.4464C255.16 46.2943 255.16 46.2943 252.109 47.6509C251.939 47.6509 251.6 47.6509 251.43 47.8205C251.261 47.8205 251.261 47.8205 251.091 47.8205C250.922 47.8205 250.583 47.8205 250.413 47.8205C250.752 48.1596 250.583 48.1596 250.413 47.99ZM225.66 32.2195C225.66 32.389 225.66 32.389 225.66 32.5586C225.83 32.5586 225.999 32.7282 226.169 32.8978C226.338 32.7282 226.508 32.7282 226.847 32.5586C227.016 32.5586 227.186 32.5586 227.525 32.389C227.695 32.389 227.864 32.389 228.203 32.2195C228.373 32.2195 228.373 32.2195 228.542 32.2195C228.712 32.2195 228.881 32.0499 229.22 32.0499C229.39 32.0499 229.56 32.0499 229.899 32.0499C230.407 32.0499 231.085 32.0499 231.764 31.8803C232.103 31.8803 232.442 31.7107 232.611 31.7107C232.611 31.5412 232.611 31.5412 233.29 31.5412C233.459 31.5412 233.629 31.5412 233.798 31.5412C233.968 31.5412 234.137 31.3716 234.476 31.3716C234.646 31.3716 234.815 31.3716 235.154 31.5412C235.324 31.5412 235.324 31.5412 235.494 31.5412C235.833 31.5412 236.002 31.3716 236.341 31.3716C236.511 31.3716 236.68 31.3716 237.019 31.3716C237.528 31.3716 238.206 31.3716 238.884 31.3716C239.223 31.3716 239.563 31.5412 239.902 31.5412C240.241 31.5412 240.58 31.3716 240.749 31.3716C241.428 30.5237 241.427 30.5237 241.427 30.015C241.427 29.3367 241.428 29.3367 241.597 29.3367C241.597 29.1671 241.597 28.9975 241.597 28.9975C241.258 28.8279 240.749 28.8279 240.41 28.6584C239.902 28.6584 239.393 28.6584 238.884 28.8279C238.545 28.8279 238.206 28.8279 238.037 28.9975C237.867 28.9975 237.528 28.9975 237.358 28.9975C237.189 28.9975 237.189 28.9975 237.019 28.9975C236.511 28.9975 236.002 28.9975 235.494 28.9975C232.442 29.1671 232.272 29.3367 229.56 29.3367C226.508 30.1845 226.169 29.8454 225.66 32.2195ZM233.629 14.2444C233.459 14.2444 233.459 14.2444 233.29 14.2444C232.781 14.2444 232.781 14.2444 232.781 14.414C232.442 14.7531 232.103 15.0923 231.764 15.2618C231.594 15.4314 231.594 15.7706 231.594 15.9402C231.594 16.1097 231.594 16.4489 231.594 16.6185C231.594 16.6185 231.594 16.6185 231.594 16.788C231.594 16.9576 231.594 17.1272 231.594 17.2968C231.594 17.2968 231.594 17.4663 231.594 17.6359C231.594 17.9751 231.594 18.3142 231.594 18.4838C231.594 18.8229 231.425 18.9925 231.425 19.3317C231.425 19.5013 231.425 19.6708 231.425 19.8404C231.425 20.01 231.425 20.3491 231.425 20.6883C231.085 21.5362 230.746 22.384 230.068 22.8928C229.899 22.8928 229.56 22.8928 229.39 23.0623C228.712 23.0623 228.203 23.2319 227.525 23.2319C227.016 23.2319 226.677 23.2319 226.338 23.4015C226.169 23.4015 226.169 23.4015 225.999 23.4015C225.999 23.2319 225.999 23.2319 224.812 23.2319C224.812 23.4015 224.812 23.4015 224.812 23.5711C224.643 23.5711 224.643 23.5711 224.473 23.5711V23.4015C224.473 23.2319 223.795 23.2319 223.795 23.4015C223.456 23.4015 223.117 23.4015 222.947 23.5711C222.439 23.5711 221.93 23.5711 221.422 23.5711C220.913 23.5711 220.913 23.5711 220.913 23.7407C220.913 23.7407 220.913 23.7407 220.913 23.9102C220.404 23.9102 220.065 23.9102 219.726 23.9102C219.557 23.9102 219.387 23.9102 219.218 24.0798C219.048 24.0798 218.709 24.0798 218.539 24.2494C217.861 24.2494 217.353 24.419 216.674 24.419C216.335 24.419 215.996 24.419 215.827 24.419C215.657 24.419 215.657 24.419 215.488 24.419C215.318 24.419 215.318 24.419 215.149 24.419C214.809 24.419 214.301 24.419 213.962 24.5885C213.792 24.5885 213.453 24.7581 213.284 24.9277C212.944 24.9277 212.944 24.9277 212.944 25.4364C213.114 25.4364 213.284 25.4364 213.453 25.4364C213.792 26.1147 213.792 26.1147 213.962 27.4713C213.792 27.4713 213.623 27.4713 213.453 27.4713C213.453 27.8105 213.453 28.1496 213.623 28.4888C213.623 28.4888 213.623 28.6584 213.623 28.8279C213.623 29.1671 213.623 29.3367 213.623 29.6758C213.623 29.6758 213.623 29.8454 213.623 30.015C213.623 30.1845 213.453 30.5237 213.453 30.6933C213.453 31.0324 213.623 31.3716 213.792 31.7107C213.962 31.7107 213.962 31.8803 214.131 32.0499C214.47 32.0499 214.64 32.0499 214.979 32.2195C214.979 32.0499 215.149 32.0499 215.149 31.8803C215.488 31.8803 215.996 31.202 216.674 30.8629C218.878 28.4888 217.692 27.4713 221.93 26.4539C222.269 26.4539 222.778 26.4539 223.117 26.2843C223.626 26.2843 224.134 26.1147 224.643 26.1147C226.169 26.6234 224.982 25.9451 226.169 25.9451C226.847 25.9451 227.356 25.9451 228.034 25.9451C228.203 25.7756 228.373 25.7756 228.542 25.606C228.712 25.606 228.881 25.606 229.22 25.7756C229.56 25.7756 230.068 25.606 230.407 25.606C232.103 24.9277 233.798 25.0973 235.833 25.0973C236.172 25.0973 236.68 25.0973 237.019 25.0973C237.867 25.2668 238.545 25.2668 239.393 25.4364C239.563 25.4364 239.732 25.4364 239.902 25.4364C240.071 25.4364 240.071 25.4364 240.241 25.4364C241.767 25.606 241.428 25.606 242.614 25.606C243.123 25.606 243.632 25.7756 244.14 25.7756C244.31 25.7756 244.479 25.7756 244.649 25.9451C244.988 25.9451 245.327 26.1147 245.497 26.1147C245.666 26.1147 245.836 26.1147 246.175 25.9451C246.344 25.9451 246.344 25.9451 246.514 25.9451C246.853 25.9451 247.192 26.1147 247.361 26.1147C247.701 26.1147 248.209 26.1147 248.548 25.9451C248.718 25.9451 248.887 26.1147 249.057 26.2843C249.226 26.2843 249.396 26.2843 249.735 26.2843C249.905 26.2843 250.244 26.2843 250.413 26.2843C249.905 27.6409 250.074 28.1496 249.226 29.1671C249.057 29.1671 249.057 29.1671 249.057 29.3367C248.887 29.3367 248.887 29.3367 248.718 29.3367C248.718 29.5062 248.718 29.8454 248.718 30.1845C248.887 30.1845 248.887 30.1845 249.057 30.1845C249.057 30.1845 249.226 30.1845 249.226 30.3541C249.226 30.5237 249.226 30.6933 249.226 30.8629C250.413 30.6933 251.261 30.8628 252.278 29.8454C252.448 29.8454 252.448 29.8454 252.787 29.3367C253.295 28.4888 253.804 27.4713 254.313 26.6234C254.482 26.4539 254.482 26.1147 254.652 25.9451C254.652 25.7756 254.652 25.606 254.652 25.606C254.821 25.606 254.821 25.606 254.991 25.606C254.991 25.0973 254.991 25.0973 254.652 25.0973C254.313 24.7581 253.974 24.419 253.804 24.0798C253.465 24.0798 253.126 24.0798 252.956 24.0798C252.787 24.0798 252.448 24.0798 252.278 24.2494C252.109 24.2494 252.109 24.2494 251.939 24.2494C251.939 24.0798 251.939 24.0798 251.261 24.0798C251.261 24.2494 251.261 24.2494 251.261 24.419C251.091 24.419 251.091 24.419 250.922 24.419C250.922 24.2494 250.922 24.0798 250.922 24.0798C250.583 24.0798 250.244 24.0798 250.074 24.2494C249.905 24.2494 249.905 24.2494 249.735 24.2494C249.566 24.2494 249.226 24.2494 249.057 24.2494C248.887 24.2494 248.887 24.2494 248.718 24.0798C248.209 23.9102 247.701 23.9102 247.192 23.7407C247.022 23.7407 246.683 23.7407 246.514 23.9102C246.175 23.7407 245.836 23.7407 245.666 23.5711C245.496 23.5711 245.157 23.5711 244.988 23.5711C244.14 23.4015 243.123 23.4015 242.275 23.2319C241.767 23.2319 241.258 23.0623 240.749 23.0623C240.41 23.0623 240.071 23.0623 239.902 23.2319C239.732 23.2319 239.732 23.2319 239.563 23.2319C238.884 23.2319 238.206 23.2319 237.528 23.2319C237.359 23.2319 237.358 23.2319 237.189 23.2319C237.019 23.2319 236.85 23.2319 236.68 23.0623C236.341 23.0623 236.002 23.0623 235.833 23.2319C235.494 23.0623 235.324 22.8928 235.154 22.7232C235.154 22.5536 235.324 22.2145 235.324 22.0449C235.154 22.0449 234.985 22.0449 234.815 22.0449C234.815 21.7057 234.815 21.3666 234.815 21.197C234.815 20.8579 234.985 20.6883 234.985 20.3491C234.985 19.8404 234.815 19.3317 234.815 18.8229C234.815 18.4838 234.646 18.1446 234.646 17.8055C234.307 15.4314 234.307 15.4314 233.968 15.2618C234.137 14.2444 234.137 14.2444 233.629 14.2444ZM247.531 17.6359C248.209 17.6359 248.209 17.6359 248.209 17.8055C248.379 17.8055 248.379 17.8055 248.548 17.8055C249.566 17.8055 250.752 17.9751 251.77 17.9751C252.109 17.8055 252.448 17.6359 252.787 17.6359C252.956 17.8055 253.126 18.1446 253.295 18.3142C253.295 18.4838 253.295 18.8229 253.465 19.1621C253.465 19.1621 253.465 19.3317 253.465 19.5013C253.465 19.6708 253.465 20.01 253.635 20.1796C253.465 20.3491 253.465 20.6883 253.295 20.8579C253.126 20.8579 253.126 20.8579 253.126 21.0274C253.126 21.0274 252.956 21.197 252.956 21.3666C252.787 21.3666 252.448 21.5362 252.278 21.7057C252.109 21.7057 251.77 21.5362 251.6 21.5362C251.43 21.5362 251.43 21.5362 251.261 21.5362C251.091 21.5362 250.922 21.5362 250.752 21.5362C250.583 21.5362 250.583 21.5362 250.413 21.5362C250.244 21.5362 249.905 21.5362 249.735 21.5362C249.566 21.5362 249.566 21.5362 249.396 21.5362C246.683 21.5362 247.192 21.197 244.988 20.8579C244.649 20.8579 244.31 20.8579 244.14 20.8579C243.971 20.8579 243.971 20.8579 243.801 20.8579C243.462 20.8579 243.123 20.6883 242.953 20.6883C242.784 20.6883 242.445 20.6883 242.275 20.6883C241.936 20.6883 241.427 20.5187 241.088 20.5187C240.919 20.5187 240.919 20.5187 240.749 20.5187C240.58 20.5187 240.58 20.5187 240.41 20.5187C240.241 20.5187 239.902 20.5187 239.732 20.5187C239.563 20.5187 239.563 20.5187 239.393 20.5187C239.223 20.5187 238.884 20.5187 238.715 20.6883C238.545 20.6883 238.206 20.6883 238.037 20.5187C237.358 20.1796 237.359 20.1796 237.019 19.1621C237.019 18.8229 237.189 18.6534 237.189 18.3142C237.358 18.1446 237.359 18.1446 237.528 17.9751C238.206 17.9751 238.206 17.9751 238.206 18.1446C238.376 18.1446 238.545 18.1446 238.884 18.3142C239.393 18.1446 239.902 18.1446 240.41 18.1446C240.919 18.1446 241.597 17.9751 242.275 17.9751C242.614 17.9751 242.953 17.9751 243.123 17.9751C243.462 17.9751 243.971 17.9751 244.31 17.9751C244.31 17.9751 244.31 17.9751 244.31 18.1446C244.479 18.1446 244.649 17.9751 244.988 17.9751C245.157 17.9751 245.327 17.9751 245.666 17.9751C246.005 17.9751 246.175 17.9751 246.514 17.9751C246.683 17.9751 246.683 17.9751 246.853 17.9751C247.192 17.8055 247.361 17.6359 247.531 17.6359ZM223.795 17.8055C223.795 17.6359 223.795 17.6359 224.643 17.6359C224.812 17.6359 224.812 17.6359 224.982 17.8055C225.321 17.8055 225.66 17.9751 225.83 17.9751C225.999 17.9751 225.999 17.9751 226.169 17.9751C226.338 17.9751 226.508 17.9751 226.677 17.9751C227.186 18.1446 227.864 18.1446 228.373 18.3142C229.051 18.3142 229.051 18.3142 229.051 18.4838C229.051 18.6534 229.051 18.8229 229.051 18.9925C228.881 19.1621 228.881 19.5013 228.712 19.6708C228.373 20.1796 227.864 20.6883 227.525 21.197C227.186 21.197 227.016 21.197 226.847 21.197C226.508 21.197 226.338 21.3666 226.169 21.5362C225.999 21.5362 225.999 21.5362 225.83 21.5362C225.321 21.5362 224.982 21.5362 224.643 21.5362C224.473 21.5362 224.134 21.5362 223.965 21.5362C223.626 21.5362 223.287 21.5362 223.117 21.5362C222.947 21.5362 222.608 21.5362 222.439 21.7057C221.591 21.5362 218.539 21.8753 217.353 22.0449C217.183 22.0449 217.013 22.0449 216.844 22.2145C216.844 22.0449 216.844 21.8753 216.844 21.8753C216.166 21.5362 215.488 21.3666 214.809 21.0274C214.64 20.6883 214.64 20.3491 214.47 20.01C214.301 20.01 214.301 20.01 214.131 20.01C214.131 19.6708 214.131 19.3317 214.131 18.9925C214.301 18.9925 214.301 18.9925 214.47 18.9925C214.979 18.9925 215.488 18.9925 215.996 18.9925C216.166 18.9925 216.335 18.9925 216.674 18.9925C217.522 18.6534 218.539 18.3142 219.387 18.1446C219.726 18.1446 219.896 18.1446 220.235 17.9751C220.574 17.9751 220.913 17.9751 221.082 17.9751C221.252 17.9751 221.422 17.9751 221.591 17.9751C222.608 17.9751 222.608 17.9751 223.795 17.8055Z" fill="white"/>
<path fill-rule="evenodd" clip-rule="evenodd" d="M165.303 40.6983C164.625 40.5287 164.116 40.5287 163.438 40.5287C163.269 40.5287 161.573 40.8678 161.573 40.6983C161.404 40.6983 161.065 40.6983 161.065 40.5287C160.726 40.5287 160.217 40.5287 159.878 40.6983C159.878 41.0374 158.861 40.8678 158.861 41.0374C158.182 41.0374 157.674 41.207 156.996 41.207C156.657 41.207 155.978 41.207 155.809 40.8678C155.3 40.8678 155.47 42.0549 155.47 42.0549C155.47 42.5636 155.47 43.0723 155.47 43.4115C155.809 43.581 155.809 43.9202 155.978 44.2594C156.148 44.2594 156.318 44.4289 156.148 44.5985C156.318 44.7681 156.487 44.9377 156.657 44.9377C156.826 44.9377 156.996 45.1072 156.996 45.1072C157.335 45.1072 157.504 45.1072 157.843 45.1072C158.522 45.1072 159.2 44.9377 159.708 44.9377C159.878 44.9377 160.556 44.5985 160.556 44.4289C161.065 44.2594 161.404 43.5811 161.912 43.5811C162.082 43.0723 163.099 43.2419 163.269 42.7332C163.777 42.7332 164.116 42.394 164.625 42.0549C164.795 41.8853 165.473 41.207 165.473 41.207C165.473 41.0374 165.303 40.8678 165.303 40.6983C165.303 40.8678 164.964 40.5287 165.303 40.6983ZM181.071 32.8978C181.071 32.8978 180.901 33.4065 180.901 33.5761C179.884 34.0848 178.867 34.2544 177.68 34.4239C177.341 34.4239 177.171 34.5935 177.002 34.5935C176.663 34.5935 176.323 34.7631 175.815 34.7631C175.476 34.7631 175.137 34.7631 174.798 34.7631C174.798 34.9327 174.289 34.9327 174.119 34.9327C174.119 35.1022 172.594 35.4414 172.424 35.4414C172.424 35.4414 172.254 35.611 172.085 35.7806C171.915 36.1197 171.915 36.1197 171.915 36.4589C171.915 36.9676 171.915 37.6459 171.915 38.1546C171.915 38.4938 171.576 40.5287 171.915 40.5287C171.915 41.8853 171.915 43.2419 171.915 44.5985C171.915 45.2768 171.746 45.9551 171.746 46.6334C171.576 47.1421 171.237 47.8205 170.559 47.8205L170.05 48.1596C169.542 48.3292 169.542 47.99 169.033 47.99C169.033 47.8204 168.694 47.8205 168.694 47.8205C168.525 47.4813 168.525 47.1421 168.525 46.803C168.525 46.4638 168.525 44.7681 168.355 44.7681C168.185 44.2593 168.355 43.7506 168.525 43.2419C168.525 42.5636 168.525 42.0549 168.525 41.3766C168.864 41.3766 168.864 37.4763 168.864 37.1372C169.203 37.1372 169.033 35.4414 168.185 35.4414C167.846 35.4414 165.642 35.2718 165.642 35.4414C165.303 35.4414 164.456 35.2718 164.456 35.611C164.286 35.611 163.777 35.7806 163.777 35.7806C163.608 35.611 162.76 35.7806 162.591 35.7806C162.251 35.7806 162.082 35.7806 161.912 35.611C161.743 35.4414 161.404 35.1022 161.234 35.1022C161.065 34.7631 160.726 34.5935 160.556 34.2544C160.387 33.9152 160.895 33.5761 160.895 33.2369C160.895 33.2369 161.404 32.7282 161.573 32.5586C161.743 32.389 161.912 32.2195 162.251 32.2195C162.421 32.2195 163.099 32.2195 163.099 32.0499C164.286 32.0499 165.642 31.8803 166.66 31.8803C166.829 31.8803 167.338 31.7107 167.338 31.7107C167.677 31.7107 168.016 31.5411 168.355 31.3716C168.694 31.202 169.203 30.8628 169.203 30.5237C169.372 30.3541 169.203 29.5062 169.372 29.5062C169.372 29.1671 169.372 28.9975 169.711 28.8279C170.05 28.6584 169.881 28.4888 170.22 28.3192C170.22 28.3192 170.22 28.3192 170.389 28.3192C170.559 28.3192 170.389 28.3192 170.559 28.3192C170.729 28.3192 170.729 28.3192 170.898 28.3192C170.898 28.3192 171.068 28.1496 171.068 28.4888C171.237 28.6584 171.068 28.3192 171.237 28.8279C171.407 29.1671 171.576 29.1671 171.407 29.1671C171.407 29.1671 171.407 29.1671 171.407 29.3367C171.576 29.6758 172.085 30.5237 172.085 30.5237C172.085 31.0324 172.254 31.0324 172.594 31.5411C172.763 31.8803 173.95 31.7107 173.95 31.8803C174.289 31.8803 174.628 32.0499 174.798 32.0499C175.476 32.0499 175.984 32.2195 176.832 32.2195C177.171 32.2195 177.341 32.2195 177.51 32.2195C177.849 32.2195 178.358 32.389 178.867 32.389C179.206 32.389 180.053 32.389 180.223 32.389L181.071 32.8978ZM183.783 40.6983C183.105 40.6983 182.936 40.3591 182.257 40.3591C182.257 40.1895 180.562 40.02 180.392 40.02C178.697 39.3416 177.51 39.1721 175.815 39.1721C176.154 39.1721 175.815 39.3416 175.815 39.1721C175.476 40.02 175.984 40.3591 175.984 41.207C175.984 41.7157 176.493 42.394 176.832 42.394C176.832 42.5636 178.527 43.2419 178.697 43.2419C178.697 43.2419 179.545 43.7506 179.545 44.0898C180.053 44.0898 180.053 44.4289 180.392 44.4289C180.732 44.4289 181.071 44.9377 181.24 45.2768C181.41 45.4464 181.918 45.4464 181.918 45.616C182.257 45.616 182.427 45.7855 182.766 45.616C183.105 45.4464 183.444 45.4464 183.783 45.4464C183.783 45.2768 184.631 44.9377 184.801 44.9377C184.801 44.7681 185.648 44.0898 185.818 43.9202C185.818 43.7506 186.157 43.2419 186.326 43.2419C186.326 42.7332 186.665 42.7332 186.835 42.394C187.005 42.0549 187.174 41.8853 187.005 41.5461C186.666 40.6983 183.783 41.0374 183.783 40.6983ZM159.2 32.5586L159.369 32.389C159.708 32.2195 159.878 32.2195 159.878 32.0499L161.404 31.0324C161.404 31.0324 161.404 31.0324 161.404 30.8628C164.625 28.9975 165.981 26.9626 169.881 25.9451C170.05 25.9451 170.22 25.7756 170.389 25.7756C170.559 25.7756 170.729 25.7756 170.898 25.7756C172.933 26.2843 177.51 28.8279 178.697 30.5237L180.053 31.0324C180.223 31.0324 180.223 31.202 180.392 31.202C182.596 33.0673 184.631 36.1197 188.53 36.4589C188.87 36.4589 189.209 36.4589 189.548 36.6284C189.887 36.6284 190.056 36.6284 190.395 36.6284C190.395 36.4589 190.395 36.4589 190.904 36.4589C193.108 36.1197 195.312 33.2369 196.329 31.7107C196.16 31.5411 196.16 31.3716 196.16 31.202C195.482 31.5411 195.143 31.202 194.464 31.5411C194.295 31.5411 194.125 31.5411 193.956 31.5411C193.786 31.5411 193.786 31.5411 193.617 31.5411C193.447 31.5411 193.447 31.5411 193.278 31.5411C193.108 31.5411 192.939 31.5411 192.769 31.5411C192.26 31.3716 191.752 31.3716 191.243 31.202V31.0324C191.074 31.0324 190.904 31.0324 190.734 31.0324C190.565 31.0324 190.565 31.0324 190.395 31.0324C190.226 31.0324 190.056 31.0324 189.887 31.0324C189.548 31.0324 189.039 31.0324 188.7 31.0324C188.53 31.0324 188.53 31.0324 188.361 31.0324C188.191 31.0324 188.022 31.0324 187.852 31.0324C187.683 31.0324 187.513 31.0324 187.344 31.0324C187.344 30.8628 187.344 30.8628 186.496 30.8628C183.783 30.6933 179.714 28.1496 177.849 27.1322C177.849 26.9626 177.849 26.9626 177.341 26.793C176.663 26.4539 177.002 25.9451 174.798 25.0973C173.441 23.5711 171.746 22.384 169.881 21.8753C169.711 21.8753 169.542 21.8753 169.372 21.8753C167.168 22.8928 164.964 25.0973 162.93 26.4539C162.251 26.6234 162.251 26.6234 162.421 26.793C161.404 27.3017 160.387 27.8105 159.539 28.3192C159.369 28.3192 159.2 28.4888 159.03 28.4888C159.03 28.6584 159.03 28.6584 150.384 32.7282C150.214 32.7282 150.044 32.7282 149.875 32.7282C149.705 32.7282 149.705 32.5586 149.536 32.5586C149.366 32.5586 149.197 32.5586 149.027 32.5586C148.688 32.5586 148.519 32.5586 148.349 32.5586C148.519 33.2369 148.18 33.9152 147.671 34.5935C147.671 34.7631 147.671 34.9327 147.501 35.1022C147.501 35.2718 147.501 35.4414 147.501 35.611C147.501 35.7806 147.671 35.9501 147.671 36.2893C147.671 36.4589 147.84 36.6284 147.84 36.798C148.01 36.798 148.18 36.798 148.349 36.798C148.688 37.4763 149.197 37.6459 150.553 37.8155C150.723 37.8155 150.892 37.8155 151.062 37.8155C153.096 36.9676 158.352 34.4239 158.691 32.5586C158.861 32.5586 159.03 32.5586 159.2 32.5586ZM158.691 22.384C158.522 22.384 158.182 22.384 158.013 22.5536C158.013 22.5536 158.013 22.5536 157.843 22.5536C157.674 22.5536 157.504 22.5536 157.165 22.5536C155.47 22.7232 154.283 24.2494 152.418 24.0798C152.249 23.2319 150.892 22.7232 151.401 21.8753C151.231 21.7057 151.231 21.7057 151.231 21.197C151.062 21.197 151.062 21.197 151.062 20.5187H151.231C151.231 20.3491 151.401 20.1796 151.401 20.01C151.909 19.8404 152.249 19.5012 152.757 19.3317V19.1621C153.944 18.1446 154.113 17.8055 154.453 16.4489H154.622C154.622 16.2793 154.792 15.9402 154.792 15.7706H154.961C155.131 15.7706 155.3 15.7706 155.47 15.7706C156.148 15.9402 157.165 17.1272 157.165 18.1446C157.335 18.1446 157.335 18.1446 157.674 18.4838C158.182 18.4838 158.691 18.4838 159.369 18.4838C160.726 17.6359 160.726 16.1097 161.573 14.9227C161.743 14.9227 161.912 14.9227 162.082 14.9227C162.082 14.9227 162.251 14.9227 162.421 14.9227C162.421 15.2618 162.93 15.601 163.269 16.1097C163.438 17.2968 163.438 17.4663 163.608 17.9751C163.777 17.9751 163.947 18.1446 164.286 18.1446C164.456 18.1446 164.625 18.1446 164.795 17.9751C165.642 17.6359 165.642 17.6359 166.151 17.6359C166.32 17.6359 166.49 17.6359 166.66 17.4663C167.677 16.9576 167.846 16.4489 168.525 15.601C169.033 15.601 169.881 15.601 169.881 16.6185C169.881 16.788 169.881 16.9576 169.881 17.1272C169.711 18.3142 169.542 18.6534 169.542 18.9925C168.864 19.3317 169.033 20.1796 168.864 20.8579C168.525 21.0274 168.355 21.0274 168.185 21.3666C168.016 21.3666 167.677 21.3666 167.507 21.3666C166.32 21.7057 163.608 21.7057 163.269 23.0623C162.421 23.9102 162.082 24.7581 160.726 24.9277C160.217 24.2494 159.878 22.8928 159.369 22.5536C158.861 22.384 158.861 22.384 158.691 22.384ZM177.51 23.9102L177.341 23.7406C177.341 23.5711 177.341 23.4015 177.341 23.2319C177.341 23.0623 177.341 22.8928 177.51 22.7232C177.849 21.7057 177.341 21.3666 176.663 21.197C176.493 21.197 176.154 21.197 175.984 21.197C174.967 21.3666 174.458 21.3666 173.611 21.8753C173.441 21.8753 173.102 21.8753 172.933 21.8753V21.7057C172.254 21.3666 171.915 21.0274 171.915 20.5187C171.915 20.3491 171.915 20.3491 172.085 20.01C172.424 19.3317 172.763 18.6534 173.272 18.4838C173.272 18.3142 173.441 18.1446 173.441 16.788C173.272 16.6185 173.272 16.6185 173.102 16.4489C173.102 16.4489 173.102 16.4489 172.933 16.4489C172.933 16.2793 172.933 16.1097 172.933 15.9401C172.933 15.9401 172.933 15.9401 173.102 15.9401C173.272 15.9401 173.441 15.9401 173.611 15.9401C174.458 15.9401 174.458 15.9402 175.306 16.6185C175.476 17.1272 175.476 17.1272 175.476 18.1446C175.645 18.3142 175.815 18.3142 175.984 18.4838C176.154 18.4838 176.323 18.4838 176.493 18.4838C178.019 18.3142 179.375 18.1446 179.375 16.4489H179.545C179.714 15.7706 179.714 15.7706 179.884 15.4314C179.884 13.9052 179.375 14.414 181.24 14.0748C181.579 14.5835 181.41 14.7531 181.24 15.2618C181.24 15.4314 181.24 15.601 181.071 15.7706C181.071 15.9402 181.071 16.2793 181.24 16.4489C181.24 16.6185 181.071 16.788 181.071 16.9576C181.071 17.1272 181.071 17.2968 180.901 17.4663C180.901 17.6359 180.901 17.8055 180.901 17.9751C181.579 18.1446 182.427 18.1446 183.275 18.1446C183.444 18.1446 183.614 18.1446 183.783 18.1446C184.292 18.1446 184.801 18.3142 185.309 18.3142C185.987 17.9751 186.835 15.4314 186.835 14.5835C187.174 14.5835 187.513 14.7531 188.022 15.0923V15.2618H188.191C188.53 16.2793 188.022 17.8055 187.174 18.6534C186.835 20.01 186.157 20.01 185.818 20.8579C184.97 21.3666 182.766 20.8579 181.918 20.8579C179.884 21.0274 179.884 21.197 179.375 21.197C179.206 21.8753 179.036 22.0449 178.527 22.384C178.527 22.8928 178.188 23.0623 178.019 23.5711L177.51 23.9102Z" fill="white"/>
<path fill-rule="evenodd" clip-rule="evenodd" d="M460.815 21.5362C461.323 22.8928 461.832 24.2494 462.51 25.606C463.866 23.2319 464.884 21.3666 465.392 20.01L468.953 22.384C469.122 22.5536 469.292 22.7232 469.292 22.8928C469.292 23.0623 469.122 23.2319 468.953 23.4015C468.783 23.5711 468.444 23.5711 468.274 23.5711C466.409 25.2668 464.884 26.4539 463.527 27.1322C465.053 29.5062 467.088 31.7107 469.631 33.5761C468.953 34.7631 468.613 35.611 468.274 35.9501C468.105 36.2893 467.766 37.1372 467.257 38.3242C466.07 37.1372 465.053 35.7805 464.036 34.2544C463.019 32.5586 462.34 31.0324 461.832 29.6758C461.493 28.9975 461.154 27.4713 460.645 25.2668V37.3067C460.645 38.3242 460.475 39.1721 460.136 39.5112C459.967 39.8504 459.628 40.0199 459.458 40.1895C458.95 40.5287 458.271 40.5287 457.424 40.5287H453.016V38.4938H455.389C455.898 38.4938 456.237 38.3242 456.406 38.1546C456.576 37.985 456.746 37.6459 456.746 37.1372V17.8055H448.608V15.9401H456.746V9.66583H460.645C461.154 9.66583 461.323 9.83541 461.323 10.1746C461.323 10.3441 461.154 10.6833 460.815 10.8529V15.9401H469.122V17.8055H460.815V21.5362ZM442.165 31.8803C441.148 32.0499 439.961 32.389 438.096 32.5586L439.113 36.2893C439.283 36.798 439.283 36.9676 439.452 37.1372C439.622 37.3067 439.622 37.3067 439.791 37.3067C440.13 37.3067 440.3 36.9676 440.47 36.4589C444.369 34.7631 447.421 33.2369 449.455 31.5411L449.116 30.015C448.268 30.1845 447.251 30.5237 446.234 30.8628H446.064V22.8928H448.608V21.0274H446.064V13.0574H449.455V11.192H438.265V13.0574H442.165V21.0274H438.774V22.8928H442.165V31.8803ZM449.794 21.197C450.812 23.0623 451.829 25.0973 452.507 27.4713L456.067 24.4189C455.05 22.7232 453.355 21.3666 450.981 20.1795L449.794 21.197ZM463.188 10.3441L462.171 11.7007C463.527 12.8878 464.714 14.2444 465.901 15.601L468.613 12.5486C467.088 11.5312 465.392 10.8529 463.188 10.3441ZM450.642 36.798C453.016 34.7631 455.05 32.5586 456.576 30.1845L455.559 28.8279C453.355 30.5237 450.642 32.2194 447.59 33.7456L449.286 37.1372C449.455 37.4763 449.625 37.6459 449.964 37.6459C450.133 37.6459 450.472 37.3067 450.642 36.798Z" fill="white"/>
<path fill-rule="evenodd" clip-rule="evenodd" d="M620.184 21.0274L622.218 20.1796C623.914 22.2145 625.27 24.0798 626.287 25.7756C627.474 27.6409 628.322 29.8454 629 32.0499L623.914 35.611C623.236 30.3541 621.879 25.606 620.184 21.0274ZM609.842 10.5137C612.046 10.8529 613.741 11.3616 614.758 11.7008C616.284 12.2095 617.81 13.2269 619.675 14.414L615.776 18.9925C614.419 17.4663 613.402 16.2793 612.554 15.4314C611.537 14.414 610.181 13.2269 608.655 12.0399L609.842 10.5137ZM603.738 21.3666C603.908 23.4015 603.908 25.0973 603.908 26.2843C603.908 28.9975 603.738 31.5411 603.23 33.9152C603.06 34.9327 602.721 35.9501 602.212 37.3067L597.635 34.0848C599.5 30.6933 600.517 26.2843 601.195 21.0274L603.738 21.3666ZM606.79 17.6359V36.4589C606.79 37.4763 606.96 38.3242 607.299 38.8329C607.468 39.0025 607.638 39.1721 607.807 39.5112C608.485 40.1895 609.672 40.5287 611.198 40.5287H617.641C618.997 40.5287 620.014 40.1895 620.523 39.6808C620.862 39.3417 621.201 39.0025 621.371 38.6633C621.54 38.3242 621.71 37.4763 621.879 36.1197L622.218 31.3716L620.184 31.202L620.014 34.5935C620.014 35.1022 619.845 35.4414 619.506 35.7806C619.336 35.9501 618.827 36.1197 618.149 36.1197H613.233C612.215 36.1197 611.537 35.611 611.707 34.5935V19.1621C612.046 18.8229 612.215 18.6534 612.215 18.4838C612.215 18.1446 612.046 17.9751 611.537 17.9751H606.79V17.6359Z" fill="white"/>
<path fill-rule="evenodd" clip-rule="evenodd" d="M576.442 27.6409H583.732V16.788H576.442V27.6409ZM564.744 27.6409H571.864V16.788H564.744V27.6409ZM588.48 31.3716H583.902V29.3367H576.442V39.5112H571.864V29.3367H564.744V31.7107H560.166V14.9227H571.864V8.81796H576.442C576.951 8.81796 577.12 8.98753 577.12 9.32668C577.12 9.49626 576.951 9.83541 576.612 10.005V14.9227H588.649V31.3716H588.48Z" fill="white"/>
<path fill-rule="evenodd" clip-rule="evenodd" d="M545.246 22.5536H535.922V20.6883H545.246V22.5536ZM539.312 24.2494C540.33 25.0973 541.516 30.8628 541.686 32.5586L538.295 33.7456C538.295 31.7107 538.295 27.3017 537.787 24.9277L539.312 24.2494ZM534.735 25.2668C535.752 26.1147 537.278 31.8803 537.278 33.5761L533.887 34.9327C533.887 32.8978 533.718 28.4888 533.209 26.1147L534.735 25.2668ZM540.838 12.8878C541.516 14.7531 542.364 16.2793 543.381 17.6359C544.399 19.3317 545.585 20.5187 546.772 21.7057C547.45 22.384 548.468 23.0623 549.485 23.7406C549.824 22.384 549.994 21.5362 550.163 21.197C550.333 20.8579 550.502 20.1796 550.841 18.9925C548.637 17.9751 546.772 16.788 545.246 15.4314C543.551 14.0748 542.364 12.5486 541.516 11.192C541.516 11.192 541.686 11.0224 541.686 10.8529C542.025 10.6833 542.195 10.3441 542.195 10.1746C542.195 9.83541 542.025 9.66583 541.686 9.66583L538.634 9.32668C536.43 14.7531 534.226 18.6534 530.835 22.2145L531.513 23.7406C535.413 21.3666 538.295 18.1446 540.838 12.8878ZM518.628 32.389L526.597 31.5411L526.766 33.5761L518.798 34.4239L518.628 32.389ZM549.146 38.6633V36.798C546.942 36.798 545.246 36.798 543.042 36.798C544.738 33.9152 546.603 30.015 548.298 26.9626C548.468 26.793 548.637 26.793 548.807 26.6234C548.976 26.4539 549.146 26.2843 549.146 26.1147C549.146 25.9451 549.146 25.7756 548.976 25.7756C548.807 25.606 548.637 25.4364 548.298 25.4364L544.738 24.5885C544.399 27.6409 542.873 32.8978 541.008 36.798C537.787 36.798 534.565 36.798 531.174 36.798V38.6633H549.146ZM522.867 25.4364H525.58C525.749 23.5711 526.597 15.7706 526.936 13.2269C522.867 13.2269 522.697 13.2269 518.628 13.2269V11.3616C524.393 11.3616 524.223 11.3616 530.157 11.3616C529.988 14.414 528.97 23.0623 528.801 25.4364H531.174C530.835 29.1671 531.005 31.3716 530.666 33.7456C530.327 35.7805 530.157 37.1372 529.818 37.6459C529.479 38.3242 529.14 38.8329 528.631 39.0025C528.292 39.1721 527.614 39.3416 526.766 39.3416H523.036V37.3067H525.071C525.919 37.3067 526.427 37.1372 526.766 36.798C526.936 36.4589 527.105 36.1197 527.275 35.2718C527.614 33.9152 527.614 31.8803 527.953 27.3017H522.867C522.867 27.6409 522.697 28.4888 522.528 29.5062H519.137C519.476 26.6234 520.154 19.6708 520.493 16.2793H523.884C523.545 18.1446 523.036 23.5711 522.867 25.4364Z" fill="white"/>
<path fill-rule="evenodd" clip-rule="evenodd" d="M359.429 39.5112L358.581 38.3242C361.294 36.2893 363.498 33.9152 365.363 31.3716L368.923 33.2369C369.432 33.4065 369.601 33.7456 369.601 33.9152C369.601 34.2544 369.262 34.5935 368.414 34.5935C367.227 35.611 365.871 36.4589 364.854 37.1372C363.158 38.1546 361.294 38.8329 359.429 39.5112ZM378.078 33.0673L379.265 31.3716C382.825 32.2194 386.047 33.5761 388.759 35.4414L385.199 39.1721C383.164 37.1372 380.96 35.1022 378.078 33.0673ZM375.365 18.1446C376.383 18.9925 377.57 19.6708 378.926 20.5187C381.808 22.0449 385.368 23.2319 389.268 24.2494C388.759 25.2668 388.42 25.9451 388.251 26.2843C388.081 26.6234 387.742 27.4713 387.403 28.6584C381.808 26.793 377.57 23.7406 374.348 19.3317C370.279 23.7406 365.193 26.9626 359.259 28.8279L358.581 27.3017C363.158 24.5885 366.719 21.7057 369.601 18.3142H365.871V14.9227H359.089V13.2269H365.871V9.66583H369.771C370.279 9.66583 370.449 9.83541 370.449 10.1746C370.449 10.3441 370.279 10.6833 369.94 10.8529V13.0574H377.57V9.66583H381.469C381.978 9.66583 382.147 9.83541 382.147 10.1746C382.147 10.3441 381.978 10.6833 381.639 10.8529V13.0574H388.759V14.9227H381.639V18.3142H377.57V14.9227H369.94V17.9751C370.279 17.4663 370.788 16.9576 371.296 16.2793L375.535 16.9576C375.874 16.9576 376.044 17.1272 376.044 17.4663C376.213 17.6359 376.044 17.9751 375.365 18.1446ZM376.044 27.98V24.419C376.383 24.0798 376.552 23.9102 376.552 23.7406C376.552 23.4015 376.383 23.2319 375.874 23.2319H371.805V27.98H363.328V29.8454H371.805V40.6983H376.044V29.6758H384.521V27.8105H376.044V27.98Z" fill="white"/>
<path fill-rule="evenodd" clip-rule="evenodd" d="M344.678 11.7008H322.299V10.005H344.678V11.7008ZM349.256 21.5362H332.302L335.184 22.7232C335.523 22.8928 335.693 23.0623 335.862 23.2319C335.862 23.4015 335.862 23.5711 335.862 23.7407C335.862 23.9102 335.693 24.0798 335.354 24.2494C335.184 24.2494 335.015 24.419 334.845 24.419C332.641 26.9626 329.42 31.7107 326.198 33.7456C326.707 33.7456 327.216 33.7456 327.724 33.7456C331.454 33.7456 340.101 33.2369 340.949 32.8978C340.101 31.202 338.405 28.9975 337.558 27.6409L339.423 26.6234C342.983 29.1671 347.561 33.2369 348.578 36.1197L344 39.1721C343.831 38.4938 342.644 35.7806 341.796 34.4239C337.219 35.7806 331.624 36.798 326.368 37.6459C325.52 37.8155 324.164 37.985 322.468 38.3242C322.129 38.8329 321.96 39.0025 321.621 39.0025C321.451 39.0025 321.451 39.0025 321.282 38.8329C321.112 38.8329 321.112 38.4938 320.943 37.8155L320.095 33.9152C320.773 33.9152 321.451 33.9152 321.79 33.9152C322.299 33.9152 322.808 33.9152 323.316 33.9152C326.368 30.6933 329.928 24.5885 331.454 21.5362H318.06V19.8404H349.256V21.5362Z" fill="white"/>
<path fill-rule="evenodd" clip-rule="evenodd" d="M481.668 24.5885C481.329 25.0973 481.16 25.4364 480.82 25.9451C480.312 26.6234 479.803 27.3017 478.786 28.3192L477.43 27.3017C479.125 23.9102 480.481 20.6883 481.329 17.4663C482.516 13.5661 483.025 10.8529 483.364 9.32668L487.941 10.3441C488.45 10.5137 488.619 10.6833 488.619 11.0224C488.619 11.3616 488.28 11.7007 487.772 11.8703C486.924 14.2444 486.246 16.1097 485.907 17.1272V40.1895H481.838V24.5885H481.668ZM495.232 25.606V32.389H490.654V34.2544H495.232V40.02H499.301V34.2544H503.878V32.389H499.301V20.8579C499.809 22.8928 500.318 24.7581 500.996 26.2843C502.691 30.3541 504.726 33.2369 507.099 34.9327C507.778 33.0673 508.625 31.3716 509.473 29.5062C506.93 27.6409 504.726 25.4364 502.691 22.5536C501.674 21.0274 500.826 19.5012 500.148 17.8055H509.134V16.2793H499.47V10.8529C499.809 10.5137 499.979 10.3441 499.979 10.005C499.979 9.66584 499.64 9.49626 499.131 9.49626H495.401V16.2793H486.924V18.1446H494.214V18.3142C493.875 19.5012 493.197 20.8579 492.519 22.5536C490.993 25.9451 489.806 28.4888 488.958 30.015C488.28 31.202 487.263 32.7282 486.076 34.2544L487.263 35.611C488.111 34.9327 488.789 34.2544 489.298 33.9152C490.145 33.0673 490.993 32.0499 492.01 30.8628C493.028 29.1671 494.045 27.4713 495.232 25.606Z" fill="white"/>
<path fill-rule="evenodd" clip-rule="evenodd" d="M414.869 13.3965C410.8 19.1621 405.883 23.0623 399.61 25.7756L398.762 24.0798C401.644 21.8753 404.357 19.5012 406.561 16.9576C408.935 14.2444 410.461 11.8703 411.478 9.83541L416.395 10.3441C416.903 10.3441 417.073 10.5137 417.073 10.8529C417.073 11.192 416.734 11.3616 416.225 11.5312C416.225 11.7007 416.056 11.7007 416.056 11.7007C417.412 13.3965 419.446 14.9227 421.82 16.2793C424.363 17.8055 427.076 18.9925 430.127 20.01C429.28 21.7057 428.602 23.4015 427.923 25.0973C426.398 24.419 425.041 23.7406 423.685 22.8928V24.7581H416.564V30.015H425.55V31.8803H416.564V38.1546H428.771V40.0199H400.119V38.1546H411.987V31.8803H403.34V30.015H411.987V24.7581H405.035V22.8928H423.515C419.955 20.8579 417.242 17.8055 414.869 13.3965Z" fill="white"/>
<path d="M323.316 54.9427V50.7032L319.925 46.1247H322.129L324.673 49.6858L327.385 46.1247H328.572L325.181 50.3641V54.7731H323.316V54.9427Z" fill="white"/>
<path d="M330.946 46.1247H332.811V51.3816C332.811 52.399 332.98 53.0773 333.319 53.586C333.658 53.9252 334.167 54.2643 335.015 54.2643C335.862 54.2643 336.371 54.0948 336.71 53.586C337.049 53.2469 337.219 52.399 337.219 51.3816V46.1247H338.066V51.7207C338.066 52.9077 337.727 53.7556 337.219 54.2643C336.54 54.7731 335.693 55.1122 334.506 55.1122C333.997 55.1122 333.489 55.1122 332.98 54.9427C332.471 54.7731 332.132 54.6035 331.793 54.2643C331.454 53.9252 331.285 53.586 331.115 53.2469C330.946 52.9077 330.946 52.399 330.946 51.7207V46.1247Z" fill="white"/>
<path d="M341.966 54.9426V46.2943H343.661L348.917 52.399V46.2943H349.765V54.9426H348.917L342.813 47.99V54.9426H341.966Z" fill="white"/>
<path d="M362.311 52.7382C361.972 53.4165 361.294 54.0948 360.615 54.4339C359.937 54.7731 359.089 54.9426 358.072 54.9426C356.716 54.9426 355.529 54.4339 354.512 53.586C353.495 52.7382 353.156 51.5511 353.156 50.3641C353.156 49.0075 353.664 47.99 354.512 47.1421C355.529 46.2943 356.716 45.7855 358.072 45.7855C358.92 45.7855 359.768 45.9551 360.276 46.2943C360.954 46.6334 361.463 46.9726 361.802 47.6509L361.124 47.99C360.785 47.4813 360.446 47.1421 359.937 46.803C359.429 46.4638 358.92 46.4638 358.242 46.4638C357.225 46.4638 356.377 46.803 355.868 47.4813C355.19 48.1596 355.02 49.1771 355.02 50.3641C355.02 51.5511 355.36 52.5686 355.868 53.2469C356.377 53.9252 357.225 54.2643 358.242 54.2643C358.92 54.2643 359.598 54.0948 360.107 53.7556C360.615 53.4165 361.124 52.9077 361.463 52.399L362.311 52.7382Z" fill="white"/>
<path d="M367.228 50.7032V54.7731H365.363V46.1247H367.228V50.0249H371.466V46.1247H373.331V54.7731H371.466V50.7032H367.228Z" fill="white"/>
<path d="M376.044 54.9426L380.282 45.9551L384.69 54.9426H382.656L381.469 52.5686H377.909L376.891 54.9426H376.044ZM378.248 52.0599H381.299L379.774 48.8379L378.248 52.0599Z" fill="white"/>
<path d="M401.644 50.8728V53.7556C400.966 54.2643 400.458 54.6035 399.78 54.7731C399.101 54.9426 398.423 55.1122 397.745 55.1122C396.219 55.1122 395.032 54.7731 394.015 53.9252C392.998 53.0773 392.659 52.0599 392.659 50.5337C392.659 49.1771 393.167 48.1596 394.015 47.3117C395.032 46.4638 396.219 45.9551 397.575 45.9551C398.423 45.9551 399.271 46.1247 399.78 46.4638C400.458 46.803 400.966 47.1421 401.305 47.8205L400.627 48.1596C400.288 47.6509 399.949 47.3117 399.44 46.9726C398.932 46.6334 398.423 46.6334 397.745 46.6334C396.728 46.6334 395.88 46.9726 395.371 47.6509C394.693 48.3292 394.524 49.3466 394.524 50.5337C394.524 51.7207 394.863 52.7382 395.371 53.4165C395.88 54.0948 396.728 54.4339 397.745 54.4339C398.084 54.4339 398.593 54.4339 398.932 54.2643C399.271 54.0948 399.61 53.9252 399.78 53.7556V50.8728H401.644Z" fill="white"/>
<path d="M411.478 54.2643V54.9426H405.035V46.2943H406.9V54.2643H411.478Z" fill="white"/>
<path d="M417.92 55.1122C417.242 55.1122 416.564 54.9426 415.886 54.7731C415.208 54.6035 414.699 54.2643 414.191 53.7556C413.682 53.4165 413.343 52.9077 413.004 52.2294C412.665 51.7207 412.665 51.0424 412.665 50.3641C412.665 49.6858 412.834 49.1771 413.004 48.4988C413.343 47.99 413.682 47.4813 414.191 46.9726C414.699 46.6334 415.208 46.2943 415.886 45.9551C416.564 45.7855 417.242 45.616 417.92 45.616C418.429 45.616 419.107 45.616 419.616 45.7855C420.125 45.9551 420.633 46.1247 421.142 46.4638C421.82 46.9726 422.329 47.4813 422.668 47.99C423.007 48.6683 423.176 49.3466 423.176 50.0249C423.176 50.7032 423.007 51.212 422.837 51.8903C422.498 52.399 422.159 52.9077 421.65 53.4165C421.142 53.9252 420.633 54.0948 419.955 54.4339C419.277 54.9426 418.599 55.1122 417.92 55.1122ZM421.142 50.5337C421.142 49.3466 420.803 48.3292 420.294 47.6509C419.616 46.9726 418.938 46.4638 417.92 46.4638C416.903 46.4638 416.225 46.803 415.547 47.6509C414.869 48.3292 414.699 49.3466 414.699 50.5337C414.699 51.7207 415.038 52.7382 415.547 53.4165C416.225 54.0948 416.903 54.6035 417.92 54.6035C418.938 54.6035 419.616 54.2643 420.294 53.4165C420.803 52.7382 421.142 51.7207 421.142 50.5337Z" fill="white"/>
<path d="M429.958 54.9426H426.228V46.2943H429.28C429.958 46.2943 430.467 46.2943 430.806 46.2943C431.314 46.2943 431.484 46.4638 431.823 46.4638C432.162 46.6334 432.501 46.9726 432.84 47.3117C433.01 47.6509 433.179 47.99 433.179 48.4988C433.179 49.0075 433.01 49.3466 432.671 49.6858C432.332 50.0249 431.992 50.1945 431.314 50.3641C431.992 50.5337 432.501 50.8728 432.84 51.212C433.179 51.5511 433.349 52.0599 433.349 52.7382C433.349 53.586 433.01 54.0948 432.501 54.4339C432.162 54.7731 431.314 54.9426 429.958 54.9426ZM428.263 46.803V50.1945H429.28C430.127 50.1945 430.636 50.0249 430.975 49.8554C431.314 49.5162 431.484 49.1771 431.484 48.4988C431.484 47.99 431.314 47.4813 430.806 47.3117C430.467 46.9726 429.788 46.9726 428.941 46.9726H428.263V46.803ZM428.263 50.5337V54.2643H429.449C430.297 54.2643 430.806 54.0948 431.314 53.9252C431.653 53.586 431.823 53.2469 431.823 52.7382C431.823 52.0599 431.653 51.5511 431.145 51.212C430.636 50.8728 429.958 50.7032 429.11 50.7032H428.263V50.5337Z" fill="white"/>
<path d="M435.892 54.9426L440.13 45.9551L444.539 54.9426H442.504L441.487 52.5686H437.926L436.909 54.9426H435.892ZM438.096 52.0599H441.148L439.622 48.8379L438.096 52.0599Z" fill="white"/>
<path d="M453.524 54.2643V54.9426H447.082V46.2943H448.947V54.2643H453.524Z" fill="white"/>
<path d="M461.832 54.9426V46.2943H468.274V46.9726H463.866V50.1945H467.935V50.8728H463.866V54.2643H468.274V54.9426H461.832Z" fill="white"/>
<path d="M470.478 54.9426L473.869 50.8728L470.478 46.2943H472.682L475.226 49.5162L477.938 46.2943H478.956L475.734 50.1945L479.464 54.9426H477.26L474.547 51.3815L471.665 54.9426H470.478Z" fill="white"/>
<path d="M482.007 54.9426V46.2943H485.737C486.754 46.2943 487.772 46.4638 488.28 46.9726C488.958 47.4813 489.298 47.99 489.298 48.8379C489.298 49.6858 488.959 50.1945 488.45 50.7032C487.941 51.212 487.094 51.3815 486.076 51.3815H484.042V54.9426H482.007ZM483.872 50.7032H484.72C485.568 50.7032 486.246 50.5337 486.585 50.1945C487.094 49.8554 487.263 49.3466 487.263 48.8379C487.263 48.1596 487.094 47.6509 486.585 47.3117C486.246 46.9726 485.568 46.803 484.72 46.803H483.872V50.7032Z" fill="white"/>
<path d="M492.349 54.9426V46.2943H498.792V46.9726H494.384V50.1945H498.453V50.8728H494.384V54.2643H498.792V54.9426H492.349Z" fill="white"/>
<path d="M502.183 54.9426V46.2943H505.574C506.93 46.2943 507.778 46.4638 508.456 46.9726C509.134 47.4813 509.473 47.99 509.473 48.8379C509.473 49.5162 509.304 50.0249 508.795 50.3641C508.286 50.7032 507.608 50.8728 506.76 51.0424L509.473 55.1122H507.269L504.556 50.7032C505.574 50.7032 506.421 50.5337 506.93 50.1945C507.439 49.8554 507.608 49.5162 507.608 48.8379C507.608 48.1596 507.439 47.6509 506.93 47.3117C506.421 46.9726 505.743 46.803 504.895 46.803H504.048V54.9426H502.183Z" fill="white"/>
<path d="M514.729 54.9426H512.864V46.2943H514.729V54.9426Z" fill="white"/>
<path d="M518.798 54.9426V46.2943H525.24V46.9726H520.832V50.1945H524.901V50.8728H520.832V54.2643H525.24V54.9426H518.798Z" fill="white"/>
<path d="M528.631 54.9426V46.2943H530.327L535.582 52.399V46.2943H536.43V54.9426H535.752L529.649 47.99V54.9426H528.631Z" fill="white"/>
<path d="M548.976 52.7382C548.637 53.4165 547.959 54.0948 547.281 54.4339C546.603 54.7731 545.755 54.9426 544.738 54.9426C543.381 54.9426 542.195 54.4339 541.177 53.586C540.16 52.7382 539.821 51.5511 539.821 50.3641C539.821 49.0075 540.33 47.99 541.177 47.1421C542.195 46.2943 543.381 45.7855 544.738 45.7855C545.585 45.7855 546.433 45.9551 546.942 46.2943C547.62 46.6334 548.129 46.9726 548.468 47.6509L547.79 47.99C547.45 47.4813 547.111 47.1421 546.603 46.803C546.094 46.4638 545.585 46.4638 544.907 46.4638C543.89 46.4638 543.042 46.803 542.534 47.4813C541.856 48.1596 541.686 49.1771 541.686 50.3641C541.686 51.5511 542.025 52.5686 542.534 53.2469C543.042 53.9252 543.89 54.2643 544.907 54.2643C545.585 54.2643 546.264 54.0948 546.772 53.7556C547.281 53.4165 547.789 52.9077 548.129 52.399L548.976 52.7382Z" fill="white"/>
<path d="M551.858 54.9426V46.2943H558.301V46.9726H553.893V50.1945H557.962V50.8728H553.893V54.2643H558.301V54.9426H551.858Z" fill="white"/>
<path d="M576.103 52.7382C575.764 53.4165 575.086 54.0948 574.408 54.4339C573.729 54.7731 572.882 54.9426 571.864 54.9426C570.508 54.9426 569.321 54.4339 568.304 53.586C567.287 52.7382 566.948 51.5511 566.948 50.3641C566.948 49.0075 567.456 47.99 568.304 47.1421C569.321 46.2943 570.508 45.7855 571.864 45.7855C572.712 45.7855 573.56 45.9551 574.068 46.2943C574.747 46.6334 575.255 46.9726 575.594 47.6509L574.916 47.99C574.577 47.4813 574.238 47.1421 573.729 46.803C573.221 46.4638 572.712 46.4638 572.034 46.4638C571.017 46.4638 570.169 46.803 569.66 47.4813C568.982 48.1596 568.813 49.1771 568.813 50.3641C568.813 51.5511 569.152 52.5686 569.66 53.2469C570.169 53.9252 571.017 54.2643 572.034 54.2643C572.712 54.2643 573.39 54.0948 573.899 53.7556C574.408 53.4165 574.916 52.9077 575.255 52.399L576.103 52.7382Z" fill="white"/>
<path d="M579.155 54.9426V46.2943H585.597V46.9726H581.189V50.1945H585.258V50.8728H581.189V54.2643H585.597V54.9426H579.155Z" fill="white"/>
<path d="M588.988 54.9426V46.2943H590.684L595.939 52.399V46.2943H596.787V54.9426H595.939L589.836 47.99V54.9426H588.988Z" fill="white"/>
<path d="M602.382 54.9427V46.803H599.669V46.1247H606.96V46.803H604.247V54.9427H602.382Z" fill="white"/>
<path d="M609.672 54.9426V46.2943H616.115V46.9726H611.707V50.1945H615.776V50.8728H611.707V54.2643H616.115V54.9426H609.672Z" fill="white"/>
<path d="M619.675 54.9426V46.2943H623.066C624.422 46.2943 625.27 46.4638 625.948 46.9726C626.626 47.4813 626.965 47.99 626.965 48.8379C626.965 49.5162 626.796 50.0249 626.287 50.3641C625.779 50.7032 625.101 50.8728 624.253 51.0424L626.965 55.1122H624.761L622.049 50.7032C623.066 50.7032 623.914 50.5337 624.422 50.1945C624.931 49.8554 625.101 49.5162 625.101 48.8379C625.101 48.1596 624.931 47.6509 624.422 47.3117C623.914 46.9726 623.236 46.803 622.388 46.803H621.54V54.9426H619.675Z" fill="white"/>
<path d="M293.138 10.5137H292.29V50.0249H293.138V10.5137Z" fill="white"/>
<path d="M290.256 10.5137H289.408V50.0249H290.256V10.5137Z" fill="white"/>
</svg>
