<svg width="70" height="70" viewBox="0 0 70 70" fill="none" xmlns="http://www.w3.org/2000/svg">
<g clip-path="url(#clip0_201_2499)">
<path d="M54.6733 12.5817C54.6733 11.8954 54.2158 11.4379 53.5295 11.4379H16.0132C15.3269 11.4379 14.8694 11.8954 14.8694 12.5817C14.8694 13.268 15.3269 13.7255 16.0132 13.7255H53.3008C54.2158 13.9543 54.6733 13.268 54.6733 12.5817Z" fill="#DD453D"/>
<path d="M33.6274 16.9281V28.366C33.6274 29.0523 34.085 29.5098 34.7712 29.5098C35.4575 29.5098 35.915 29.0523 35.915 28.366V16.9281C35.915 16.2418 35.4575 15.7843 34.7712 15.7843C34.085 15.7843 33.6274 16.2418 33.6274 16.9281Z" fill="#DD453D"/>
<path d="M59.9347 37.2876C60.1635 37.0588 60.3922 36.6013 60.3922 36.3725C60.3922 36.1438 60.1635 35.6863 59.9347 35.4575C58.7909 34.3137 57.6471 33.3987 56.5033 32.7124V32.4837V25.3922V22.6471C56.5033 21.2745 55.8171 19.902 54.4445 18.9869C53.072 18.0719 51.4707 17.6144 49.4118 17.6144H40.9478C40.2615 17.6144 39.804 18.0719 39.804 18.9869C39.804 19.6732 40.2615 20.3595 40.9478 20.3595H49.4118C50.7844 20.3595 51.9282 20.5882 52.6144 21.2745C53.072 21.5033 53.3007 21.732 53.5295 21.9608C53.7582 22.1895 53.7582 22.4183 53.7582 22.8758V24.4771H40.9478C40.2615 24.4771 39.804 24.9346 39.804 25.8497C39.804 26.5359 40.2615 27.2222 40.9478 27.2222H53.7582V32.2549C52.1569 31.5686 50.3269 31.3399 48.4968 31.3399C46.2092 31.3399 43.6929 31.7974 41.4053 32.9412C39.3465 32.0261 37.0589 31.5686 34.5425 31.5686C32.255 31.5686 29.9674 32.0261 27.6798 32.9412C25.3922 31.7974 22.8759 31.3399 20.5883 31.3399C18.987 31.3399 17.3857 31.5686 15.7844 32.0261V27.2222H28.5948C29.2811 27.2222 29.7386 26.7647 29.7386 25.8497C29.7386 25.1634 29.2811 24.4771 28.5948 24.4771H16.0131V22.6471C16.0131 22.4183 16.0131 22.1895 16.2419 21.732C16.9282 20.817 18.5295 20.1307 20.5883 20.1307H29.0524C29.7386 20.1307 30.1961 19.6732 30.1961 18.7582C30.1961 18.0719 29.7386 17.3856 29.0524 17.3856H20.5883C18.7582 17.3856 16.9282 17.8431 15.5556 18.7582C14.4118 19.902 13.4968 21.0458 13.4968 22.6471V32.7124C12.1242 33.3987 10.7517 34.3137 9.60791 35.4575C9.37915 35.6863 9.15039 36.1438 9.15039 36.3725C9.15039 36.6013 9.37915 37.0588 9.60791 37.2876C9.83666 37.5163 10.0654 37.7451 10.5229 37.7451C10.7517 37.7451 11.2092 37.5163 11.438 37.2876C13.9543 34.7712 17.3857 33.3987 20.8171 33.3987C22.1896 33.3987 23.5622 33.6274 24.9347 34.085C23.1046 35.2288 21.5033 36.6013 19.902 38.4314H14.6406C13.9543 38.4314 13.4968 38.8889 13.4968 39.8039C13.4968 40.4902 13.9543 41.1765 14.6406 41.1765H17.3857L13.268 53.5294V53.9869C13.268 55.3595 13.7256 56.5033 14.6406 57.4183C15.5556 58.3333 16.9282 58.7908 18.3007 58.7908H27.451C28.8236 58.7908 30.1961 58.3333 31.1112 57.4183C32.0262 56.5033 32.7125 55.3595 32.7125 53.9869V53.5294L28.5948 41.1765H32.0262C32.7125 41.1765 33.17 40.719 33.17 39.8039C33.17 39.1176 32.7125 38.4314 32.0262 38.4314H23.5622C24.9347 37.0588 26.536 36.1438 28.3661 35.2288H28.5948C30.6537 34.3137 32.7125 33.8562 34.7713 33.8562C36.8301 33.8562 38.889 34.3137 40.9478 35.2288H41.1765C42.7778 35.915 44.6079 37.0588 45.9805 38.4314H37.5164C36.8301 38.4314 36.3726 38.8889 36.3726 39.8039C36.3726 40.4902 36.8301 41.1765 37.5164 41.1765H41.1765L37.0589 53.5294V53.9869C37.0589 55.3595 37.5164 56.5033 38.4314 57.4183C39.3465 58.3333 40.719 58.7908 42.0916 58.7908H51.4707C52.8432 58.7908 54.2158 58.3333 55.1308 57.4183C56.0458 56.5033 56.5033 55.3595 56.5033 53.9869V53.5294L52.3857 41.1765H54.902C55.5883 41.1765 56.0458 40.719 56.0458 39.8039C56.0458 39.1176 55.5883 38.4314 54.902 38.4314H49.4118C47.8105 36.8301 46.2092 35.2288 44.3791 34.085C45.7517 33.6274 47.1242 33.3987 48.4968 33.3987C51.9282 33.3987 55.3595 34.7712 57.8759 37.2876C58.1046 37.5163 58.3334 37.7451 58.7909 37.7451C59.2484 37.5163 59.7059 37.5163 59.9347 37.2876ZM27.451 55.817H18.3007C16.9282 55.817 15.7844 54.902 15.7844 53.5294L20.1308 40.719H26.0785L30.4249 53.5294C29.9674 54.902 28.8236 55.817 27.451 55.817ZM51.4707 55.817H42.0916C40.719 55.817 39.5752 54.902 39.5752 53.5294L43.9216 40.719H49.8693L54.2158 53.5294C53.7582 54.902 52.6144 55.817 51.4707 55.817Z" fill="#DD453D"/>
<path d="M69.9999 35C69.9999 27.2222 67.4836 19.902 62.9084 13.9543C62.9084 13.9543 62.9084 13.7255 62.9084 13.4968C62.9084 12.353 61.9934 11.4379 60.8496 11.4379C59.7058 11.4379 58.7908 12.353 58.7908 13.4968C58.7908 14.6405 59.7058 15.5556 60.8496 15.5556H61.0784C65.196 21.2745 67.4836 27.9085 67.4836 35C67.4836 41.8628 65.196 48.7255 61.0784 54.2157H60.8496C59.7058 54.2157 58.7908 55.1307 58.7908 56.2745C58.7908 57.4183 59.7058 58.3334 60.8496 58.3334C61.9934 58.3334 62.9084 57.4183 62.9084 56.2745C62.9084 56.0458 62.9084 56.0458 62.9084 55.817C67.4836 49.8693 69.9999 42.549 69.9999 35Z" fill="#DD453D"/>
<path d="M14.6405 9.8366C15.5555 9.8366 16.4706 9.15033 16.6993 8.23529C22.1895 4.57516 28.366 2.51634 35 2.51634C41.1765 2.51634 47.3529 4.34641 52.6144 7.77778C52.6144 8.92157 53.5294 9.8366 54.6732 9.8366C55.817 9.8366 56.732 8.92157 56.732 7.77778C56.732 6.63399 55.817 5.71895 54.6732 5.71895C54.4444 5.71895 54.2157 5.71895 53.9869 5.94771C48.268 2.05882 41.8627 0 35 0C28.1372 0 21.5033 2.05882 15.7843 5.71895C15.3268 5.71895 15.098 5.4902 14.6405 5.4902C13.4967 5.4902 12.5817 6.40523 12.5817 7.54902C12.3529 8.92157 13.4967 9.8366 14.6405 9.8366Z" fill="#DD453D"/>
<path d="M54.2158 60.6209C53.072 60.6209 52.157 61.5359 52.157 62.6797C46.8955 65.8823 41.1766 67.7124 35.0001 67.7124C28.3661 67.7124 22.1896 65.8823 16.9282 62.2222C16.6994 61.0784 16.0132 60.3922 14.8694 60.3922C13.7256 60.3922 12.8105 61.3072 12.8105 62.451C12.8105 63.5948 13.7256 64.5098 14.8694 64.5098C15.0981 64.5098 15.5556 64.5098 15.7844 64.281C21.5034 68.1699 28.1373 70.2288 35.0001 70.2288C41.6341 70.2288 47.8105 68.3987 53.5295 64.9673C53.7583 64.9673 53.987 65.1961 54.4445 65.1961C55.5883 65.1961 56.5034 64.281 56.5034 63.1373C56.5034 61.5359 55.5883 60.6209 54.2158 60.6209Z" fill="#DD453D"/>
<path d="M8.92157 54.2157C4.80392 48.7255 2.51634 41.8628 2.51634 35C2.51634 27.9085 4.80392 21.2745 8.92157 15.5556C10.0654 15.5556 10.9804 14.6405 10.9804 13.4968C10.9804 12.353 10.0654 11.4379 8.69281 11.4379C7.54902 11.4379 6.63399 12.353 6.63399 13.4968C6.63399 13.7255 6.63399 13.9543 6.86275 14.4118C2.28758 20.3595 0 27.451 0 35C0 42.549 2.51634 49.8693 6.86275 55.817C6.86275 56.0458 6.86275 56.2745 6.86275 56.5033C6.86275 57.6471 7.77778 58.5621 8.92157 58.5621C10.0654 58.5621 10.9804 57.6471 10.9804 56.5033C10.9804 55.1307 10.0654 54.2157 8.92157 54.2157Z" fill="#DD453D"/>
</g>
<defs>
<clipPath id="clip0_201_2499">
<rect width="70" height="70" fill="white"/>
</clipPath>
</defs>
</svg>
