<svg width="70" height="70" viewBox="0 0 70 70" fill="none" xmlns="http://www.w3.org/2000/svg">
<g clip-path="url(#clip0_201_2454)">
<path d="M54.6732 12.5817C54.6732 11.8954 54.2157 11.4379 53.5294 11.4379H16.0131C15.3268 11.4379 14.8693 11.8954 14.8693 12.5817C14.8693 13.268 15.3268 13.7255 16.0131 13.7255H53.3006C54.2157 13.9543 54.6732 13.268 54.6732 12.5817Z" fill="#EFEFEF"/>
<path d="M33.6274 16.9281V28.366C33.6274 29.0523 34.085 29.5098 34.7712 29.5098C35.4575 29.5098 35.915 29.0523 35.915 28.366V16.9281C35.915 16.2418 35.4575 15.7843 34.7712 15.7843C34.085 15.7843 33.6274 16.2418 33.6274 16.9281Z" fill="#EFEFEF"/>
<path d="M59.9346 37.2876C60.1633 37.0588 60.3921 36.6013 60.3921 36.3725C60.3921 36.1438 60.1633 35.6863 59.9346 35.4575C58.7908 34.3137 57.647 33.3987 56.5032 32.7124V32.4837V25.3922V22.6471C56.5032 21.2745 55.8169 19.902 54.4444 18.9869C53.0718 18.0719 51.4705 17.6144 49.4117 17.6144H40.9477C40.2614 17.6144 39.8039 18.0719 39.8039 18.9869C39.8039 19.6732 40.2614 20.3595 40.9477 20.3595H49.4117C50.7843 20.3595 51.928 20.5882 52.6143 21.2745C53.0718 21.5033 53.3006 21.732 53.5294 21.9608C53.7581 22.1895 53.7581 22.4183 53.7581 22.8758V24.4771H40.9477C40.2614 24.4771 39.8039 24.9346 39.8039 25.8497C39.8039 26.5359 40.2614 27.2222 40.9477 27.2222H53.7581V32.2549C52.1568 31.5686 50.3267 31.3399 48.4967 31.3399C46.2091 31.3399 43.6928 31.7974 41.4052 32.9412C39.3463 32.0261 37.0588 31.5686 34.5424 31.5686C32.2548 31.5686 29.9673 32.0261 27.6797 32.9412C25.3921 31.7974 22.8758 31.3399 20.5882 31.3399C18.9869 31.3399 17.3856 31.5686 15.7843 32.0261V27.2222H28.5947C29.281 27.2222 29.7385 26.7647 29.7385 25.8497C29.7385 25.1634 29.281 24.4771 28.5947 24.4771H16.013V22.6471C16.013 22.4183 16.013 22.1895 16.2418 21.732C16.928 20.817 18.5294 20.1307 20.5882 20.1307H29.0522C29.7385 20.1307 30.196 19.6732 30.196 18.7582C30.196 18.0719 29.7385 17.3856 29.0522 17.3856H20.5882C18.7581 17.3856 16.928 17.8431 15.5555 18.7582C14.4117 19.902 13.4967 21.0458 13.4967 22.6471V32.7124C12.1241 33.3987 10.7516 34.3137 9.60778 35.4575C9.37903 35.6863 9.15027 36.1438 9.15027 36.3725C9.15027 36.6013 9.37903 37.0588 9.60778 37.2876C9.83654 37.5163 10.0653 37.7451 10.5228 37.7451C10.7516 37.7451 11.2091 37.5163 11.4379 37.2876C13.9542 34.7712 17.3856 33.3987 20.8169 33.3987C22.1895 33.3987 23.562 33.6274 24.9346 34.085C23.1045 35.2288 21.5032 36.6013 19.9019 38.4314H14.6405C13.9542 38.4314 13.4967 38.8889 13.4967 39.8039C13.4967 40.4902 13.9542 41.1765 14.6405 41.1765H17.3856L13.2679 53.5294V53.9869C13.2679 55.3595 13.7254 56.5033 14.6405 57.4183C15.5555 58.3333 16.928 58.7908 18.3006 58.7908H27.4509C28.8235 58.7908 30.196 58.3333 31.1111 57.4183C32.0261 56.5033 32.7124 55.3595 32.7124 53.9869V53.5294L28.5947 41.1765H32.0261C32.7124 41.1765 33.1699 40.719 33.1699 39.8039C33.1699 39.1176 32.7124 38.4314 32.0261 38.4314H23.562C24.9346 37.0588 26.5359 36.1438 28.366 35.2288H28.5947C30.6535 34.3137 32.7124 33.8562 34.7712 33.8562C36.83 33.8562 38.8888 34.3137 40.9477 35.2288H41.1764C42.7777 35.915 44.6078 37.0588 45.9803 38.4314H37.5163C36.83 38.4314 36.3725 38.8889 36.3725 39.8039C36.3725 40.4902 36.83 41.1765 37.5163 41.1765H41.1764L37.0588 53.5294V53.9869C37.0588 55.3595 37.5163 56.5033 38.4313 57.4183C39.3463 58.3333 40.7189 58.7908 42.0914 58.7908H51.4705C52.8431 58.7908 54.2156 58.3333 55.1307 57.4183C56.0457 56.5033 56.5032 55.3595 56.5032 53.9869V53.5294L52.3856 41.1765H54.9019C55.5882 41.1765 56.0457 40.719 56.0457 39.8039C56.0457 39.1176 55.5882 38.4314 54.9019 38.4314H49.4117C47.8104 36.8301 46.2091 35.2288 44.379 34.085C45.7516 33.6274 47.1241 33.3987 48.4967 33.3987C51.928 33.3987 55.3594 34.7712 57.8758 37.2876C58.1045 37.5163 58.3333 37.7451 58.7908 37.7451C59.2483 37.5163 59.7058 37.5163 59.9346 37.2876ZM27.4509 55.817H18.3006C16.928 55.817 15.7843 54.902 15.7843 53.5294L20.1307 40.719H26.0784L30.4248 53.5294C29.9673 54.902 28.8235 55.817 27.4509 55.817ZM51.4705 55.817H42.0914C40.7189 55.817 39.5751 54.902 39.5751 53.5294L43.9215 40.719H49.8692L54.2156 53.5294C53.7581 54.902 52.6143 55.817 51.4705 55.817Z" fill="#EFEFEF"/>
<path d="M70 35C70 27.2222 67.4837 19.902 62.9085 13.9543C62.9085 13.9543 62.9085 13.7255 62.9085 13.4968C62.9085 12.353 61.9935 11.4379 60.8497 11.4379C59.7059 11.4379 58.7909 12.353 58.7909 13.4968C58.7909 14.6405 59.7059 15.5556 60.8497 15.5556H61.0785C65.1961 21.2745 67.4837 27.9085 67.4837 35C67.4837 41.8628 65.1961 48.7255 61.0785 54.2157H60.8497C59.7059 54.2157 58.7909 55.1307 58.7909 56.2745C58.7909 57.4183 59.7059 58.3334 60.8497 58.3334C61.9935 58.3334 62.9085 57.4183 62.9085 56.2745C62.9085 56.0458 62.9085 56.0458 62.9085 55.817C67.4837 49.8693 70 42.549 70 35Z" fill="#EFEFEF"/>
<path d="M14.6405 9.8366C15.5555 9.8366 16.4706 9.15033 16.6993 8.23529C22.1895 4.57516 28.366 2.51634 35 2.51634C41.1765 2.51634 47.3529 4.34641 52.6144 7.77778C52.6144 8.92157 53.5294 9.8366 54.6732 9.8366C55.817 9.8366 56.732 8.92157 56.732 7.77778C56.732 6.63399 55.817 5.71895 54.6732 5.71895C54.4444 5.71895 54.2157 5.71895 53.9869 5.94771C48.268 2.05882 41.8627 0 35 0C28.1372 0 21.5033 2.05882 15.7843 5.71895C15.3268 5.71895 15.098 5.4902 14.6405 5.4902C13.4967 5.4902 12.5817 6.40523 12.5817 7.54902C12.3529 8.92157 13.4967 9.8366 14.6405 9.8366Z" fill="#EFEFEF"/>
<path d="M54.2157 60.6209C53.0719 60.6209 52.1568 61.5359 52.1568 62.6797C46.8954 65.8823 41.1764 67.7124 35 67.7124C28.366 67.7124 22.1895 65.8823 16.9281 62.2222C16.6993 61.0784 16.013 60.3922 14.8692 60.3922C13.7255 60.3922 12.8104 61.3072 12.8104 62.451C12.8104 63.5948 13.7255 64.5098 14.8692 64.5098C15.098 64.5098 15.5555 64.5098 15.7843 64.281C21.5032 68.1699 28.1372 70.2288 35 70.2288C41.634 70.2288 47.8104 68.3987 53.5294 64.9673C53.7581 64.9673 53.9869 65.1961 54.4444 65.1961C55.5882 65.1961 56.5032 64.281 56.5032 63.1373C56.5032 61.5359 55.5882 60.6209 54.2157 60.6209Z" fill="#EFEFEF"/>
<path d="M8.92157 54.2157C4.80392 48.7255 2.51634 41.8628 2.51634 35C2.51634 27.9085 4.80392 21.2745 8.92157 15.5556C10.0654 15.5556 10.9804 14.6405 10.9804 13.4968C10.9804 12.353 10.0654 11.4379 8.69281 11.4379C7.54902 11.4379 6.63399 12.353 6.63399 13.4968C6.63399 13.7255 6.63399 13.9543 6.86275 14.4118C2.28758 20.3595 0 27.451 0 35C0 42.549 2.51634 49.8693 6.86275 55.817C6.86275 56.0458 6.86275 56.2745 6.86275 56.5033C6.86275 57.6471 7.77778 58.5621 8.92157 58.5621C10.0654 58.5621 10.9804 57.6471 10.9804 56.5033C10.9804 55.1307 10.0654 54.2157 8.92157 54.2157Z" fill="#EFEFEF"/>
</g>
<defs>
<clipPath id="clip0_201_2454">
<rect width="70" height="70" fill="white"/>
</clipPath>
</defs>
</svg>
