<svg width="50" height="25" viewBox="0 0 50 25" fill="none" xmlns="http://www.w3.org/2000/svg">
<path fill-rule="evenodd" clip-rule="evenodd" d="M9.30921 0.319824H13.798L4.71569 24.3998H0.200684L9.30921 0.319824ZM1.64809 23.3998H4.02409L12.3521 1.31982H10.0001L1.64809 23.3998ZM21.3092 0.319824H25.798L16.7157 24.3998H12.2007L21.3092 0.319824ZM13.6481 23.3998H16.0241L24.3521 1.31982H22.0001L13.6481 23.3998ZM33.3092 0.319824H37.798L28.7157 24.3998H24.2007L33.3092 0.319824ZM25.6481 23.3998H28.0241L36.3521 1.31982H34.0001L25.6481 23.3998ZM45.3092 0.319824H49.798L40.7157 24.3998H36.2007L45.3092 0.319824ZM37.6481 23.3998H40.0241L48.3521 1.31982H46.0001L37.6481 23.3998Z" fill="#262626" fill-opacity="0.5"/>
</svg>
