<svg width="16" height="16" viewBox="0 0 16 16" fill="none" xmlns="http://www.w3.org/2000/svg">
<path fill-rule="evenodd" clip-rule="evenodd" d="M3.64106 9.46131C3.73925 9.55066 3.86723 9.60017 3.99999 9.60017C4.13275 9.60017 4.26073 9.55066 4.35892 9.46131C6.80905 7.23358 7.99998 5.44692 7.99998 3.99999C7.99998 1.79413 6.20585 0 3.99999 0C1.79413 0 0 1.79413 0 3.99999C0 5.44692 1.19093 7.23358 3.64106 9.46131ZM3.99999 1.06666C5.61759 1.06666 6.93332 2.38239 6.93332 3.99999C6.93332 4.73119 6.41278 6.06879 3.99999 8.34025C1.5872 6.06879 1.06666 4.73119 1.06666 3.99999C1.06666 2.38239 2.38239 1.06666 3.99999 1.06666ZM9.21705 1.1264C9.0773 1.10975 8.93664 1.149 8.82572 1.23561C8.71479 1.32223 8.6426 1.44917 8.62486 1.58878C8.60713 1.72839 8.6453 1.86935 8.73105 1.98095C8.8168 2.09254 8.94318 2.16571 9.08265 2.18453C10.1412 2.32049 11.1483 2.72151 12.0106 3.35039C10.0816 3.78932 9.49491 5.11785 9.37171 6.26718C9.19305 7.92851 10.3754 8.79998 11.1578 9.37651L11.158 9.37666L11.1581 9.37667C11.4327 9.57934 11.8474 9.88535 11.8666 10.0282C11.8693 10.049 11.8501 10.1184 11.7573 10.2352C10.7397 11.5178 10.3605 12.5824 10.6314 13.401C10.7141 13.6496 10.8864 13.9493 11.2362 14.1984C10.3209 14.6811 9.30154 14.9334 8.26665 14.9333C8.23911 14.9333 8.21189 14.9315 8.18463 14.9298C8.16228 14.9283 8.13991 14.9268 8.11732 14.9264C8.78558 13.8032 8.54611 12.9546 8.17438 12.408C7.27305 11.0832 5.92585 10.6725 4.65706 11.3381C4.56906 11.3856 4.49706 11.3664 4.08372 10.9776C3.67626 10.5936 3.02986 9.99518 2.0832 10.1722C1.99946 9.85224 1.93333 9.52424 1.8992 9.18558C1.88451 9.04496 1.81482 8.91586 1.70531 8.82644C1.5958 8.73701 1.45538 8.69453 1.31466 8.70825C1.02186 8.73811 0.807999 8.99944 0.837332 9.29278C1.01996 11.1344 1.88224 12.8419 3.2559 14.082C4.62955 15.3221 6.41602 16.0059 8.26665 16C12.384 16 15.7333 12.6506 15.7333 8.53331C15.7333 4.78292 12.9322 1.59893 9.21705 1.1264ZM2.4512 11.2053C2.75733 11.217 3.00319 11.4256 3.35253 11.7541C3.75253 12.1312 4.35839 12.6986 5.15252 12.2826C6.20799 11.728 6.94612 12.4992 7.29225 13.0074C7.42772 13.2064 7.77385 13.7173 6.91839 14.7866C5.94578 14.5801 5.03508 14.1486 4.25932 13.5267C3.48355 12.9048 2.86429 12.1097 2.4512 11.2053ZM12.2736 13.5162C11.9237 13.416 11.7098 13.265 11.6432 13.065C11.5008 12.6357 11.8554 11.8256 12.592 10.8986C12.8565 10.5653 12.968 10.225 12.9232 9.88744C12.8442 9.29544 12.3322 8.91784 11.7898 8.51838L11.7881 8.51713C11.0655 7.98419 10.3185 7.43329 10.4314 6.38185C10.5237 5.52745 10.9029 4.40959 13.0432 4.27999C14.0884 5.45023 14.6663 6.96426 14.6666 8.53331C14.6666 10.5461 13.7306 12.3424 12.2736 13.5162ZM3.05718 4.9428C2.80714 4.69275 2.66666 4.35361 2.66666 3.99999C2.66666 3.64637 2.80714 3.30723 3.05718 3.05718C3.30723 2.80714 3.64637 2.66666 3.99999 2.66666C4.35361 2.66666 4.69275 2.80714 4.9428 3.05718C5.19285 3.30723 5.33332 3.64637 5.33332 3.99999C5.33332 4.35361 5.19285 4.69275 4.9428 4.9428C4.69275 5.19285 4.35361 5.33332 3.99999 5.33332C3.64637 5.33332 3.30723 5.19285 3.05718 4.9428Z" fill="white"/>
</svg>
