<svg width="40" height="40" viewBox="0 0 40 40" fill="none" xmlns="http://www.w3.org/2000/svg">
<g clip-path="url(#clip0_201_621)">
<path d="M37 20C35.0302 20 33.0796 19.612 31.2597 18.8582C29.4399 18.1044 27.7863 16.9995 26.3934 15.6066C25.0005 14.2137 23.8956 12.5601 23.1418 10.7402C22.388 8.92036 22 6.96982 22 5H22.75C22.75 6.87133 23.1186 8.72435 23.8347 10.4532C24.5508 12.1821 25.6005 13.753 26.9237 15.0763C28.247 16.3995 29.8179 17.4492 31.5468 18.1653C33.2756 18.8814 35.1287 19.25 37 19.25V20Z" fill="#262626"/>
<path d="M37 19C35.0302 19 33.0796 19.388 31.2597 20.1418C29.4399 20.8956 27.7863 22.0005 26.3934 23.3934C25.0005 24.7863 23.8956 26.4399 23.1418 28.2598C22.388 30.0796 22 32.0302 22 34H22.75C22.75 32.1287 23.1186 30.2757 23.8347 28.5468C24.5508 26.8179 25.6005 25.247 26.9237 23.9237C28.247 22.6005 29.8179 21.5508 31.5468 20.8347C33.2756 20.1186 35.1287 19.75 37 19.75V19Z" fill="#262626"/>
<rect x="8" y="19" width="19" height="1" fill="#262626"/>
</g>
<defs>
<clipPath id="clip0_201_621">
<rect width="40" height="40" fill="white"/>
</clipPath>
</defs>
</svg>
