<svg width="20" height="20" viewBox="0 0 20 20" fill="none" xmlns="http://www.w3.org/2000/svg">
<path d="M10.3068 7.61493C10.6926 7.61493 10.9503 7.363 10.9503 6.98784C10.9503 6.60841 10.693 6.36299 10.3068 6.36299C9.9204 6.36299 9.53294 6.60842 9.53294 6.98784C9.53336 7.3632 9.92101 7.61493 10.3068 7.61493V7.61493ZM6.70717 6.36297C6.32139 6.36297 5.93145 6.60841 5.93145 6.98782C5.93145 7.36297 6.3214 7.61492 6.70717 7.61492C7.09149 7.61492 7.34882 7.36299 7.34882 6.98782C7.34861 6.60839 7.09171 6.36297 6.70717 6.36297ZM18 11.6296C18 9.64587 16.1128 7.95552 13.7963 7.77963C13.7994 7.75503 13.8009 7.7294 13.7952 7.7038C13.3309 5.59213 11.002 4 8.37791 4C5.41266 4 3 6.01631 3 8.49458C3 9.82421 3.69605 11.0223 5.01521 11.967L4.5554 13.3149C4.54088 13.3578 4.53966 13.404 4.5519 13.4476C4.56415 13.4911 4.5893 13.5302 4.62422 13.5599C4.66702 13.5959 4.72163 13.6157 4.77811 13.6157C4.81378 13.6157 4.84985 13.6075 4.88299 13.5915L6.60939 12.749L6.82208 12.7911C7.35362 12.8977 7.81258 12.99 8.37791 12.99C8.54431 12.99 9.00225 12.9306 9.04082 12.883C9.66328 14.402 11.379 15.4984 13.3978 15.4984C13.9149 15.4984 14.4383 15.3768 14.9082 15.2621L16.239 15.9715C16.2742 15.9903 16.313 16 16.3514 16C16.4039 16 16.4565 15.9827 16.4986 15.9492C16.5726 15.8906 16.6031 15.7942 16.5755 15.706L16.2356 14.6039C17.375 13.7259 18 12.6754 18 11.6296H18ZM8.82311 12.3781C8.67539 12.3905 8.5272 12.3967 8.37894 12.3966C7.87973 12.3966 7.45746 12.3125 6.96909 12.2141L6.68528 12.1581C6.63612 12.1479 6.58484 12.1546 6.54015 12.177L5.29254 12.786L5.6168 11.8362C5.64851 11.7433 5.61367 11.6418 5.53173 11.5857C4.27827 10.7337 3.64309 9.69589 3.64309 8.5015C3.64309 6.35425 5.76736 4.60675 8.37874 4.60675C10.6871 4.60675 12.7309 5.97623 13.1528 7.79773C10.7324 7.82865 8.7739 9.48788 8.7739 11.5257C8.7739 11.822 8.81999 12.1091 8.89776 12.386C8.87421 12.3804 8.84938 12.3759 8.82312 12.3781H8.82311ZM15.7047 14.2092C15.6303 14.2639 15.5988 14.3582 15.6255 14.4453L15.8363 15.1289L14.9711 14.6673C14.9384 14.6498 14.9016 14.6405 14.8642 14.6405C14.846 14.6405 14.8277 14.6427 14.8097 14.6474C14.3457 14.7617 13.8655 14.8796 13.398 14.8796C11.2264 14.8796 9.45975 13.4243 9.45975 11.6358C9.45975 9.84721 11.2262 8.39252 13.398 8.39252C15.5281 8.39252 17.3281 9.87771 17.3281 11.6358C17.3281 12.5274 16.7518 13.4416 15.7047 14.2092L15.7047 14.2092ZM11.9794 9.99907C11.722 9.99907 11.4647 10.2518 11.4647 10.5023C11.4647 10.7547 11.722 11.0038 11.9794 11.0038C12.366 11.0038 12.6214 10.7547 12.6214 10.5023C12.6214 10.2514 12.366 9.99907 11.9794 9.99907ZM14.8068 9.99907C14.5532 9.99907 14.2959 10.2518 14.2959 10.5023C14.2959 10.7547 14.5532 11.0038 14.8068 11.0038C15.1921 11.0038 15.4522 10.7547 15.4522 10.5023C15.4522 10.2514 15.1926 9.99907 14.8068 9.99907Z" fill="white"/>
<rect x="0.5" y="0.5" width="19" height="19" rx="3.5" stroke="white"/>
</svg>
