<svg width="16" height="16" viewBox="0 0 16 16" fill="none" xmlns="http://www.w3.org/2000/svg">
<path d="M10.9193 5.48137L7.89093 8.51046L5.89893 6.51846C5.75711 6.37664 5.52657 6.37664 5.38475 6.51846C5.24293 6.66028 5.24293 6.89082 5.38475 7.03264L7.37675 9.02464L6.80584 9.59555C6.66402 9.73737 6.66402 9.96791 6.80584 10.1097C6.94766 10.2515 7.1782 10.2515 7.32002 10.1097L7.89093 9.53882L8.47057 10.1185C8.61239 10.2603 8.84293 10.2603 8.98475 10.1185C9.12657 9.97664 9.12657 9.74609 8.98475 9.60427L8.40511 9.02464L11.4335 5.99627C11.5753 5.85446 11.5753 5.62391 11.4335 5.48209C11.2917 5.33955 11.0611 5.33955 10.9193 5.48137ZM8.00002 1.09082C3.98329 1.09082 0.727295 4.34682 0.727295 8.36355C0.727295 12.3803 3.98329 15.6363 8.00002 15.6363C12.0167 15.6363 15.2727 12.3803 15.2727 8.36355C15.2727 4.34682 12.0167 1.09082 8.00002 1.09082ZM8.36366 14.885V13.0908C8.36366 12.8901 8.20075 12.7272 8.00002 12.7272C7.79929 12.7272 7.63639 12.8901 7.63639 13.0908V14.885C4.33529 14.701 1.64657 12.0443 1.47493 8.72718H3.27275C3.47348 8.72718 3.63639 8.56427 3.63639 8.36355C3.63639 8.16282 3.47348 7.99991 3.27275 7.99991H1.47857C1.67857 4.70609 4.35493 2.02682 7.63639 1.83991V3.63627C7.63639 3.837 7.79929 3.99991 8.00002 3.99991C8.20075 3.99991 8.36366 3.837 8.36366 3.63627V1.84064C11.6458 2.02755 14.3222 4.70682 14.5222 7.99991H12.7273C12.5266 7.99991 12.3637 8.16282 12.3637 8.36355C12.3637 8.56427 12.5266 8.72718 12.7273 8.72718H14.5251C14.3535 12.0443 11.6647 14.701 8.36366 14.885Z" fill="#262626" fill-opacity="0.5"/>
</svg>
