<svg width="16" height="16" viewBox="0 0 16 16" fill="none" xmlns="http://www.w3.org/2000/svg">
<path d="M5.13606 7.29588C5.23206 7.43988 5.63206 8.04788 7.64806 10.9279L7.66406 10.9439C7.77606 11.0879 7.96806 11.1839 8.14406 11.1839C8.33606 11.1839 8.52806 11.0879 8.62406 10.9279C9.48806 9.67988 11.1201 7.32788 11.1841 7.24788L11.2001 7.23188C11.5361 6.67188 11.7281 6.01588 11.7281 5.35988C11.7281 3.39188 10.1281 1.77588 8.14406 1.77588C6.16006 1.77588 4.56006 3.37588 4.56006 5.35988C4.56006 6.04788 4.75206 6.70388 5.13606 7.29588ZM8.12806 2.68788C9.60006 2.68788 10.8001 3.88788 10.8001 5.35988C10.8001 5.83988 10.6721 6.30388 10.4161 6.75188C10.3201 6.89588 9.00806 8.78388 8.14406 10.0319C7.47206 9.07188 6.01606 6.97588 5.87206 6.78388C5.60006 6.36788 5.44006 5.87188 5.44006 5.37588C5.45606 3.90388 6.65606 2.68788 8.12806 2.68788Z" fill="#262626" fill-opacity="0.5"/>
<path d="M8.12804 7.36009C9.21604 7.36009 10.112 6.46409 10.112 5.37609C10.112 4.28809 9.21604 3.39209 8.12804 3.39209C7.04004 3.39209 6.14404 4.28809 6.14404 5.37609C6.14404 6.46409 7.02404 7.36009 8.12804 7.36009ZM8.12804 4.28809C8.72004 4.28809 9.20004 4.76809 9.20004 5.36009C9.20004 5.96809 8.72004 6.43209 8.12804 6.43209C7.53604 6.43209 7.05604 5.95209 7.05604 5.36009C7.05604 4.76809 7.53604 4.28809 8.12804 4.28809Z" fill="#262626" fill-opacity="0.5"/>
<path d="M15.728 12.016L13.504 7.71204H11.664L10.944 8.64005H12.944L14.976 12.528L15.008 12.56C15.12 12.704 15.12 12.896 15.04 13.056C14.96 13.216 14.8 13.312 14.608 13.312H1.40804C1.21604 13.312 1.05604 13.216 0.976044 13.056C0.896044 12.88 0.912044 12.704 1.02404 12.544L1.04004 12.528L3.04004 8.62404H5.31204L4.56004 7.69604H2.48004L0.256044 12.016C-0.0479558 12.448 -0.0799558 12.992 0.160044 13.44C0.416044 13.92 0.880044 14.208 1.42404 14.208H14.624C15.152 14.208 15.632 13.92 15.872 13.44C16.08 12.976 16.032 12.432 15.728 12.016Z" fill="#262626" fill-opacity="0.5"/>
</svg>
